<?xml version="1.0" encoding="UTF-8"?>
<svg width="200px" height="120px" viewBox="0 0 200 120" version="1.1" xmlns="http://www.w3.org/2000/svg" xmlns:xlink="http://www.w3.org/1999/xlink">
    <!-- Generator: Sketch 57.1 (83088) - https://sketch.com -->
    <title>State/05 Carriers/12 Dhl</title>
    <desc>Created with Sketch.</desc>
    <defs>
        <rect id="path-1" x="0" y="0" width="200" height="72.7272727"></rect>
    </defs>
    <g id="State/05-Carriers/12-Dhl" stroke="none" stroke-width="1" fill="none" fill-rule="evenodd">
        <g id="dhl" transform="translate(0.000000, 24.000000)">
            <mask id="mask-2" fill="white">
                <use xlink:href="#path-1"></use>
            </mask>
            <g id="path-1"></g>
            <g id="dhl_express" mask="url(#mask-2)">
                <g transform="translate(2.272727, 6.818182)" id="Shape">
                    <g>
                        <polygon id="Path" fill="#FFCC00" fill-rule="nonzero" points="195.429381 0 195.429381 43.6208291 0 43.6208291 0 0"></polygon>
                        <path d="M34.3682861,7.83327739 L28.1244268,16.4130294 L62.1538559,16.4130294 C63.8739939,16.4130294 63.8512425,17.0740832 63.0104777,18.226046 C62.1566139,19.3954416 60.7277618,21.4291581 59.8580407,22.6170325 C59.416803,23.2198605 58.6187832,24.3181302 61.2631073,24.3181302 L75.1789884,24.3181302 C75.1789884,24.3181302 77.4220618,21.2311209 79.3018039,18.6500129 C81.8599486,15.1393853 79.5238016,7.83362602 70.3794934,7.83362602 L34.3682861,7.83327739 Z" id="Path" fill="#D2002E" fill-rule="nonzero"></path>
                        <path d="M25.5979959,35.7851111 L38.1391455,18.5499483 L53.7017395,18.5499483 C55.4218775,18.5499483 55.3994709,19.2110021 54.5587061,20.3629649 C53.704842,21.5323605 52.2525493,23.5444602 51.3828282,24.7323348 C50.9412457,25.3351627 50.1435707,26.4351757 52.78755,26.4351757 L73.6367243,26.4351757 C71.9027977,28.8377711 66.278395,35.7847625 56.1792207,35.7847625 L25.5979959,35.7851111 L25.5979959,35.7851111 Z M97.4215086,26.4330836 L90.6205868,35.7844136 L72.6808241,35.7844136 C72.6808241,35.7844136 79.4779541,26.4351757 79.4838143,26.4351757 L97.4215086,26.4330836 Z M124.904417,24.3181302 L81.0250441,24.3181302 L93.0242986,7.83327739 L110.95889,7.83327739 L104.081097,17.285718 L112.08646,17.285718 L118.967011,7.83327739 L136.899535,7.83327739 L124.904417,24.3181302 Z M123.364222,26.4355243 L116.560197,35.7851111 L98.6269841,35.7851111 C98.6269841,35.7851111 105.424114,26.4355243 105.429974,26.4355243 L123.364222,26.4355243 L123.364222,26.4355243 Z M0,30.1222236 L26.4287639,30.1222236 L24.9850891,32.1085227 L0,32.1085227 L0,30.1222236 Z M0,26.4355243 L29.1137645,26.4355243 L27.667332,28.4190341 L0,28.4190341 L0,26.4355243 Z M0,33.811015 L23.7451418,33.811015 L22.3083614,35.7851111 L0,35.7851111 L0,33.811015 Z M195.43007,32.1085227 L169.102998,32.1085227 L170.548052,30.1225723 L195.43007,30.1225723 L195.43007,32.1085227 Z M195.43007,35.7851111 L166.426615,35.7879002 L167.863396,33.811015 L195.43007,33.811015 L195.43007,35.7851111 Z M173.229606,26.4355243 L195.43007,26.4355243 L195.43007,28.42008 L171.785931,28.4218234 L173.229606,26.4355243 Z M161.73674,7.83327739 L149.739554,24.3177816 L130.73565,24.3177816 C130.73565,24.3177816 142.735939,7.83327739 142.742144,7.83327739 L161.73674,7.83327739 L161.73674,7.83327739 Z M129.197868,26.4355243 C129.197868,26.4355243 127.886909,28.2474948 127.250561,29.11844 C124.997835,32.1977789 126.989266,35.7851111 134.340356,35.7851111 L163.142496,35.7851111 L169.945831,26.4355243 L129.197868,26.4355243 L129.197868,26.4355243 Z" fill="#D2002E" fill-rule="nonzero"></path>
                        <path d="M0,50.712513 L195.43007,50.712513 L195.43007,51.7006068 L0,51.7006068 L0,50.712513 Z M0,55.323502 L195.43007,55.323502 L195.43007,56.3115961 L0,56.3115961 L0,55.323502 Z M0,59.9334452 L195.43007,59.9334452 L195.43007,60.9215393 L0,60.9215393 L0,59.9334452 Z" fill="#FFCC00" fill-rule="nonzero"></path>
                        <path d="M65.6241223,60.9215393 L71.5056839,60.9215393 L72.4443482,59.6346461 L68.0674764,59.6346461 L70.5218614,56.2708032 L74.5078243,56.2708032 L75.4468334,54.9835614 L71.4608707,54.9835614 L73.6374139,52.000452 L78.0146305,52.000452 L78.9536395,50.7132102 L73.0724227,50.7132102 L65.6241223,60.9215393 Z M72.8421516,60.9215393 L74.64709,60.9215393 L80.7992545,56.5926136 L80.7389289,60.9215393 L82.6341832,60.9215393 L82.6483166,55.5836002 L89.7363877,50.7132102 L88.0217652,50.7132102 L82.3794373,54.6328125 L82.4411416,50.7132102 L80.6362034,50.7132102 L80.5813934,55.6128875 L72.8421516,60.9215393 Z M92.0132436,52.000452 L93.2917989,52.000452 C94.2246032,52.000452 95.2666827,52.4683498 94.3276736,53.7552427 C93.3459195,55.1003616 91.8419191,55.5539643 90.909115,55.5539643 L89.4199375,55.5539643 L92.0132436,52.000452 L92.0132436,52.000452 Z M83.9999518,60.9215393 L85.5039523,60.9215393 L88.4809284,56.8412061 L89.9549382,56.8412061 C91.8501925,56.8412061 94.2570066,56.0368543 95.9109589,53.7695377 C97.6076559,51.4439955 96.3511625,50.712513 94.200473,50.712513 L91.4479077,50.712513 L83.9999518,60.9215393 L83.9999518,60.9215393 Z M92.6616561,60.9215393 L94.1660014,60.9215393 L97.4739057,56.3876034 L98.3760302,56.3876034 C99.1730159,56.3876034 99.6700977,56.3876034 99.4108707,57.3819732 L98.4380793,60.9215393 L100.153046,60.9215393 L101.134111,56.8555011 C101.262001,56.2268725 101.19685,56.007567 100.857993,55.8314955 L100.879365,55.8022082 C102.247547,55.5971977 103.834969,54.7199768 104.742264,53.4766659 C106.524106,51.034672 104.758466,50.712513 102.682235,50.712513 L100.110301,50.712513 L92.6616561,60.9215393 L92.6616561,60.9215393 Z M100.675292,52.000452 L102.118967,52.000452 C103.503351,52.000452 103.798084,52.5854984 103.12623,53.5063016 C102.411287,54.4867252 101.120667,55.1003616 99.6914702,55.1003616 L98.4129148,55.1003616 L100.675292,52.000452 Z M101.710478,60.9215393 L107.59204,60.9215393 L108.530359,59.6346461 L104.153832,59.6346461 L106.607872,56.2708032 L110.59418,56.2708032 L111.5325,54.9835614 L107.546882,54.9835614 L109.723425,52.000452 L114.100641,52.000452 L115.039995,50.7132102 L109.158778,50.7132102 L101.710478,60.9215393 Z M122.284913,50.9032284 C121.744396,50.6546359 121.001876,50.537487 120.310029,50.537487 C118.414775,50.537487 116.236508,51.503267 114.913139,53.3166323 C112.597675,56.490457 117.569184,55.8614798 115.904201,58.1430914 C115.029309,59.3417743 113.484287,59.8103693 112.627321,59.8103693 C111.859636,59.8103693 111.170891,59.5174975 110.808939,59.312487 L109.666546,60.6729468 C110.198445,60.892252 110.771365,61.0972625 111.508369,61.0972625 C113.613901,61.0972625 115.973489,60.2332902 117.563324,58.0541839 C120.017364,54.6910382 115.173745,55.143595 116.603976,53.1844911 C117.383381,52.1169034 118.589546,51.8243802 119.43169,51.8243802 C120.214197,51.8243802 120.538576,51.9565211 121.092192,52.2486957 L122.284913,50.9032284 L122.284913,50.9032284 Z M129.805948,50.9032284 C129.265432,50.6546359 128.523256,50.537487 127.831065,50.537487 C125.93581,50.537487 123.757544,51.503267 122.434175,53.3166323 C120.118711,56.490457 125.09022,55.8614798 123.425237,58.1430914 C122.55069,59.3417743 121.005323,59.8103693 120.148357,59.8103693 C119.380672,59.8103693 118.691582,59.5174975 118.330319,59.312487 L117.187582,60.6729468 C117.71948,60.892252 118.2924,61.0972625 119.02906,61.0972625 C121.134937,61.0972625 123.49418,60.2332902 125.084015,58.0541839 C127.5384,54.6910382 122.695126,55.143595 124.125012,53.1844911 C124.904072,52.1169034 126.110582,51.8243802 126.952726,51.8243802 C127.735233,51.8243802 128.060301,51.9565211 128.613227,52.2486957 L129.805948,50.9032284 L129.805948,50.9032284 Z" fill="#D2002E" fill-rule="nonzero"></path>
                    </g>
                </g>
            </g>
        </g>
    </g>
</svg>