<?xml version="1.0" encoding="UTF-8"?>
<svg width="200px" height="120px" viewBox="0 0 200 120" version="1.1" xmlns="http://www.w3.org/2000/svg" xmlns:xlink="http://www.w3.org/1999/xlink">
    <!-- Generator: Sketch 57.1 (83088) - https://sketch.com -->
    <title>State/05 Carriers/16 Poste-italiane</title>
    <desc>Created with Sketch.</desc>
    <g id="State/05-Carriers/16-Poste-italiane" stroke="none" stroke-width="1" fill="none" fill-rule="evenodd">
        <g id="poste-italiane" transform="translate(0.000000, 31.000000)" fill-rule="nonzero">
            <rect id="Rectangle-path" fill="#E9F404" x="0.409835714" y="0.224489541" width="199.508196" height="57.1428571"></rect>
            <path d="M88.6065573,32.5510204 C88.6065573,34.3469388 89.0983607,35.8163265 90.9016393,35.8163265 C92.3770491,35.8163265 93.1967213,35.1632653 93.3606557,33.8571429 L98.1147541,33.8571429 C97.9508196,35.6530612 96.8032788,36.7959183 95.6557377,37.6122449 C94.5081968,38.4285715 93.032787,38.5918367 91.3934427,38.5918367 C85.9836066,38.5918367 83.8524589,36.3061224 83.8524589,31.0816326 C83.8524589,26.8367347 86.967213,24.3877551 91.0655738,24.3877551 C96.4754098,24.3877551 98.2786886,27.4897959 98.2786886,32.3877551 L88.6065573,32.5510204 L88.6065573,32.5510204 Z M93.3606557,29.9387755 C93.3606557,29.2857143 93.1967213,28.4693878 92.704918,27.9795918 C92.3770491,27.4897959 91.7213114,27 90.9016393,27.1632653 C89.0983607,27.1632653 88.7704918,28.4693878 88.6065573,29.9387755 L93.3606557,29.9387755 L93.3606557,29.9387755 Z" id="Shape" fill="#004ABD"></path>
            <path d="M25,38.2653061 L25,19.1632653 L33.852459,19.1632653 C38.6065574,19.1632653 41.7213115,20.6326531 41.7213115,25.3673469 C41.7213115,30.1020408 38.6065574,31.5714286 33.852459,31.5714286 L30.4098361,31.5714286 L30.4098361,38.4285715 L25,38.4285715 L25,38.2653061 Z M33.0327869,27.6530612 C35.1639344,27.6530612 35.9836066,26.6734694 35.9836066,25.2040816 C35.9836066,23.7346939 35.1639344,22.9183673 33.0327869,22.755102 L30.2459016,22.755102 L30.2459016,27.6530612 L33.0327869,27.6530612 L33.0327869,27.6530612 Z" id="Shape" fill="#004ABD"></path>
            <path d="M57.4590164,31.5714286 C57.4590164,36.4693878 53.8524589,38.5918367 49.5901639,38.5918367 C45.3278689,38.5918367 41.7213115,36.4693878 41.7213115,31.5714286 C41.7213115,26.6734694 45.3278689,24.5510204 49.5901639,24.5510204 C53.8524589,24.5510204 57.4590164,26.6734694 57.4590164,31.5714286 L57.4590164,31.5714286 Z M49.5901639,35.8163265 C51.7213114,35.8163265 52.2131148,33.5306122 52.2131148,31.7346939 C52.2131148,29.7755102 51.7213114,27.6530612 49.5901639,27.6530612 C47.4590164,27.6530612 46.967213,29.9387755 46.967213,31.7346939 C47.1311475,33.5306122 47.4590164,35.8163265 49.5901639,35.8163265 L49.5901639,35.8163265 Z" id="Shape" fill="#004ABD"></path>
            <path d="M66.3114754,29.122449 C66.3114754,28.6326531 66.3114754,28.3061225 65.9836066,27.9795918 C65.6557377,27.6530612 65.3278689,27.4897959 64.6721311,27.4897959 C63.8524589,27.4897959 63.5245902,27.9795918 63.5245902,28.6326531 C63.5245902,29.6122449 65.6557377,29.6122449 68.7704918,30.5918367 C70.4098361,31.0816326 71.3934427,32.0612245 71.3934427,34.1836735 C71.3934427,37.7755103 68.1147541,38.5918367 65,38.5918367 C61.7213114,38.5918367 58.442623,37.9387754 58.6065573,33.8571429 L63.3606557,33.8571429 C63.3606557,34.1836735 63.3606557,34.6734694 63.6885246,35 C64.0163934,35.3265306 64.3442623,35.6530612 64.8360655,35.6530612 C65.8196721,35.6530612 66.4754098,35.3265306 66.4754098,34.5102041 C66.4754098,32.2244898 58.6065573,33.5306122 58.6065573,28.7959184 C58.6065573,25.5306122 62.0491804,24.5510204 64.8360655,24.5510204 C67.9508196,24.5510204 70.9016393,25.3673469 71.2295082,29.122449 L66.3114754,29.122449 L66.3114754,29.122449 Z" id="Shape" fill="#004ABD"></path>
            <path d="M74.6721311,24.877551 L74.6721311,22.9183673 L79.7540984,20.9591837 L79.7540984,24.877551 L82.704918,24.877551 L82.704918,28.1428571 L79.7540984,28.1428571 L79.7540984,33.3673469 C79.7540984,33.6938776 79.5901639,35.4897959 80.737705,35.4897959 C81.3934427,35.4897959 82.0491804,35.4897959 82.704918,35.4897959 L82.704918,38.4285715 C81.557377,38.5918367 80.737705,38.755102 79.9180329,38.755102 C76.4754098,38.755102 74.3442623,38.2653061 74.6721311,34.1836735 L74.6721311,28.1428571 L72.0491804,28.1428571 L72.0491804,24.877551 L74.6721311,24.877551 L74.6721311,24.877551 Z" id="Shape" fill="#004ABD"></path>
            <path d="M100.409836,24.7142857 L102.868852,24.7142857 L102.868852,38.1020408 L100.409836,38.1020408 L100.409836,24.7142857 L100.409836,24.7142857 Z M100.081967,19 L103.032787,19 L103.032787,21.7755102 L100.081967,21.7755102 L100.081967,19 L100.081967,19 Z" id="Shape" fill="#004ABD"></path>
            <path d="M106.967213,24.7142857 L106.967213,21.9387755 L109.590164,21.122449 L109.590164,24.7142857 L112.704918,24.7142857 L112.704918,26.6734694 L109.590164,26.6734694 L109.590164,35.3265306 C109.590164,36.3061224 110.409836,36.7959183 111.229508,36.7959183 C111.557377,36.7959183 112.213115,36.7959183 112.540984,36.6326531 L112.540984,38.5918367 C111.885246,38.5918367 111.393443,38.755102 110.737705,38.755102 C110.081967,38.755102 109.590164,38.755102 109.098361,38.5918367 C108.770492,38.5918367 107.95082,38.2653061 107.622951,37.7755103 C107.131147,37.122449 106.967213,37.122449 106.967213,35.3265306 L106.967213,26.8367347 L104.672131,26.8367347 L104.672131,24.7142857 L106.967213,24.7142857 L106.967213,24.7142857 Z" id="Shape" fill="#004ABD"></path>
            <path d="M122.540984,29.9387755 C122.540984,27.6530612 122.377049,26.1836735 119.754098,26.1836735 C118.442623,26.1836735 117.295082,27 117.295082,28.3061225 L114.672131,28.3061225 C114.836066,25.3673469 117.131147,24.3877551 119.754098,24.3877551 C122.540984,24.3877551 125.163934,25.2040816 125.163934,28.9591837 L125.163934,35.3265306 C125.163934,35.9795918 125.163934,36.9591836 125.327869,38.1020408 L123.688525,38.1020408 C123.52459,38.1020408 123.032787,38.2653061 123.032787,37.9387754 C123.032787,37.2857144 122.868852,36.7959183 122.868852,36.1428572 L122.868852,36.1428572 C122.04918,37.7755103 120.573771,38.5918367 118.770492,38.5918367 C116.47541,38.5918367 114.016393,37.4489795 114.016393,34.8367347 C114.016393,31.0816326 117.295082,29.9387755 120.573771,29.9387755 L122.540984,29.9387755 L122.540984,29.9387755 Z M120.081967,31.7346939 C118.606557,31.7346939 116.47541,32.3877551 116.47541,34.3469388 C116.47541,35.9795918 117.622951,36.7959183 119.098361,36.7959183 C122.04918,36.7959183 122.704918,34.1836735 122.540984,31.7346939 L120.081967,31.7346939 L120.081967,31.7346939 Z" id="Shape" fill="#004ABD"></path>
            <polygon id="Shape" fill="#004ABD" points="127.622951 19 130.245902 19 130.245902 38.1020408 127.622951 38.1020408"></polygon>
            <path d="M133.360656,24.7142857 L135.983607,24.7142857 L135.983607,38.1020408 L133.360656,38.1020408 L133.360656,24.7142857 L133.360656,24.7142857 Z M133.032787,19 L135.983607,19 L135.983607,21.7755102 L133.032787,21.7755102 L133.032787,19 L133.032787,19 Z" id="Shape" fill="#004ABD"></path>
            <path d="M146.967213,29.9387755 C146.967213,27.6530612 146.803279,26.1836735 144.180328,26.1836735 C142.868852,26.1836735 141.721311,27 141.721311,28.3061225 L139.098361,28.3061225 C139.262295,25.3673469 141.557377,24.3877551 144.180328,24.3877551 C146.967213,24.3877551 149.590164,25.2040816 149.590164,28.9591837 L149.590164,35.3265306 C149.590164,35.9795918 149.590164,36.9591836 149.754098,38.1020408 L148.114754,38.1020408 C147.95082,38.1020408 147.459016,38.2653061 147.459016,37.9387754 C147.459016,37.2857144 147.295082,36.7959183 147.295082,36.1428572 L147.295082,36.1428572 C146.47541,37.7755103 145,38.5918367 143.196721,38.5918367 C140.901639,38.5918367 138.442623,37.4489795 138.442623,34.8367347 C138.442623,31.0816326 141.721311,29.9387755 145,29.9387755 L146.967213,29.9387755 L146.967213,29.9387755 Z M144.508197,31.7346939 C143.032787,31.7346939 140.901639,32.3877551 140.901639,34.3469388 C140.901639,35.9795918 142.04918,36.7959183 143.52459,36.7959183 C146.47541,36.7959183 147.131147,34.1836735 146.967213,31.7346939 L144.508197,31.7346939 L144.508197,31.7346939 Z" id="Shape" fill="#004ABD"></path>
            <path d="M154.672131,26.8367347 L154.672131,26.8367347 C155.655738,25.2040816 157.459016,24.3877551 158.770492,24.3877551 C159.754098,24.3877551 163.852459,24.5510204 163.852459,28.9591837 L163.852459,38.2653061 L161.229508,38.2653061 L161.229508,29.7755102 C161.229508,27.4897959 160.245902,26.3469388 158.114754,26.3469388 C158.114754,26.3469388 156.803279,26.3469388 155.655738,27.3265306 C155.327869,27.6530612 154.508197,28.3061225 154.508197,30.9183673 L154.508197,38.2653061 L151.885246,38.2653061 L151.885246,24.7142857 L154.344262,24.7142857 L154.672131,26.8367347 L154.672131,26.8367347 Z" id="Shape" fill="#004ABD"></path>
            <path d="M168.606557,31.8979592 C168.442623,34.1836735 169.426229,36.6326531 172.04918,36.6326531 C174.016393,36.6326531 175,35.8163265 175.327869,33.8571429 L177.95082,33.8571429 C177.622951,36.9591836 175.163934,38.4285715 172.04918,38.4285715 C167.786885,38.4285715 165.983607,35.3265306 165.983607,31.4081633 C165.983607,27.4897959 167.95082,24.2244898 172.213115,24.2244898 C176.147541,24.2244898 178.114754,26.8367347 178.114754,30.5918367 L178.114754,31.8979592 L168.606557,31.8979592 L168.606557,31.8979592 Z M175.327869,30.2653061 C175.327869,27.9795918 174.344262,26.3469388 171.885246,26.3469388 C169.754098,26.3469388 168.442623,28.1428571 168.442623,30.2653061 L175.327869,30.2653061 L175.327869,30.2653061 Z" id="Shape" fill="#004ABD"></path>
        </g>
    </g>
</svg>