<?xml version="1.0" encoding="UTF-8"?>
<svg width="200px" height="120px" viewBox="0 0 200 120" version="1.1" xmlns="http://www.w3.org/2000/svg" xmlns:xlink="http://www.w3.org/1999/xlink">
    <!-- Generator: Sketch 57.1 (83088) - https://sketch.com -->
    <title>State/05 Carriers/32 Sda</title>
    <desc>Created with Sketch.</desc>
    <g id="State/05-Carriers/32-Sda" stroke="none" stroke-width="1" fill="none" fill-rule="evenodd">
        <g id="sda" transform="translate(0.000000, 21.000000)" fill="#006399">
            <polygon id="Path" points="14.214876 64.7933884 13.3884298 67.1900826 7.68595041 67.1900826 6.85950413 69.7520661 12.231405 69.7520661 11.4049587 72.0661157 6.11570248 72.0661157 5.04132231 75.2892562 10.9090909 75.2892562 10.0826446 77.6859504 0.743801653 77.6859504 5.04132231 64.7933884"></polygon>
            <path d="M19.9173554,64.7933884 L20.4958678,67.1900826 C20.5785124,67.4380165 20.661157,68.0165289 20.8264463,68.8429752 L24.4628099,64.7933884 L28.5123967,64.7933884 L22.7272727,70.8264463 L24.7107438,77.6859504 L21.0743802,77.6859504 L20.3305785,74.5454545 C20.2479339,74.2975207 20.1652893,73.8016529 20,72.9752066 L15.9504132,77.6859504 L11.5702479,77.6859504 L18.0991736,70.7438017 L16.1983471,64.7933884 L19.9173554,64.7933884 L19.9173554,64.7933884 Z" id="Path"></path>
            <path d="M34.6280992,64.7933884 C38.1818182,64.7933884 39.8347107,65.8677686 39.5041322,68.2644628 C39.1735537,71.1570248 36.8595041,72.9752066 33.3884298,72.9752066 C32.9752066,72.9752066 32.3140496,72.9752066 31.5702479,72.892562 L30,77.6033058 L26.5289256,77.6033058 L30.8264463,64.7107438 L34.6280992,64.7107438 L34.6280992,64.7933884 Z M32.3140496,70.5785124 L33.2231405,70.5785124 C34.9586777,70.5785124 35.9504132,69.8347107 36.1157025,68.677686 C36.1983471,67.6859504 35.6198347,67.1900826 34.2975207,67.1900826 L33.4710744,67.1900826 L32.3140496,70.5785124 L32.3140496,70.5785124 Z" id="Shape"></path>
            <path d="M48.1818182,64.7933884 C51.2396694,64.7933884 52.7272727,65.8677686 52.4793388,68.0165289 C52.231405,69.9173554 50.8264463,71.0743802 48.5123967,71.2396694 C49.338843,71.7355372 49.5041322,72.3966942 49.5867769,73.3057851 L50,77.6859504 L46.6115702,77.6859504 L46.1983471,73.553719 C46.1157025,72.8099174 45.7024793,72.5619835 44.7933884,72.5619835 L44.214876,72.5619835 L42.4793388,77.6859504 L39.0909091,77.6859504 L43.3884298,64.7933884 L48.1818182,64.7933884 L48.1818182,64.7933884 Z M44.8760331,70.1652893 L46.1157025,70.1652893 C47.768595,70.1652893 48.677686,69.5041322 48.8429752,68.5123967 C48.9256198,67.6033058 48.4297521,67.1900826 47.1900826,67.1900826 L45.8677686,67.1900826 L44.8760331,70.1652893 L44.8760331,70.1652893 Z" id="Shape"></path>
            <polygon id="Path" points="65.5371901 64.7933884 64.7107438 67.1900826 59.0909091 67.1900826 58.2644628 69.7520661 63.553719 69.7520661 62.8099174 72.0661157 57.4380165 72.0661157 56.3636364 75.2892562 62.231405 75.2892562 61.4876033 77.6859504 52.1487603 77.6859504 56.446281 64.7933884"></polygon>
            <path d="M75.7024793,67.6033058 C74.7933884,67.1900826 73.8842975,66.9421488 72.8099174,66.9421488 C71.2396694,66.9421488 70.3305785,67.4380165 70.2479339,68.2644628 C70.1652893,69.1735537 70.9917355,69.2561983 72.3140496,69.9173554 C74.0495868,70.8264463 74.8760331,71.5702479 74.7107438,73.3057851 C74.3801653,76.0330579 71.9834711,77.9338843 68.0991736,77.9338843 C66.5289256,77.9338843 65.1239669,77.6859504 63.8842975,77.1900826 L64.9586777,74.5454545 C65.9504132,75.0413223 66.9421488,75.3719008 67.9338843,75.3719008 C69.7520661,75.3719008 70.8264463,74.7107438 70.9917355,73.7190083 C71.1570248,72.6446281 70.0826446,72.3966942 68.4297521,71.6528926 C67.0247934,71.0743802 66.446281,70.0826446 66.6115702,68.5950413 C66.9421488,66.1983471 69.2561983,64.3801653 72.5619835,64.3801653 C74.3801653,64.3801653 75.8677686,64.5454545 76.8595041,64.9586777 L75.7024793,67.6033058 L75.7024793,67.6033058 Z" id="Path"></path>
            <path d="M87.107438,67.6033058 C86.1983471,67.1900826 85.2892562,66.9421488 84.214876,66.9421488 C82.6446281,66.9421488 81.7355372,67.4380165 81.6528926,68.2644628 C81.5702479,69.1735537 82.3966942,69.2561983 83.7190083,69.9173554 C85.4545455,70.8264463 86.2809917,71.5702479 86.1157025,73.3057851 C85.785124,76.0330579 83.3884298,77.9338843 79.5041322,77.9338843 C77.9338843,77.9338843 76.5289256,77.6859504 75.2892562,77.1900826 L76.3636364,74.5454545 C77.3553719,75.0413223 78.3471074,75.3719008 79.338843,75.3719008 C81.1570248,75.3719008 82.231405,74.7107438 82.3966942,73.7190083 C82.5619835,72.6446281 81.4876033,72.3966942 79.8347107,71.6528926 C78.4297521,71.0743802 77.8512397,70.0826446 78.0165289,68.5950413 C78.3471074,66.1983471 80.661157,64.3801653 83.9669421,64.3801653 C85.785124,64.3801653 87.2727273,64.5454545 88.2644628,64.9586777 L87.107438,67.6033058 L87.107438,67.6033058 Z" id="Path"></path>
            <path d="M106.198347,67.8512397 C105.371901,67.2727273 104.380165,67.0247934 103.22314,67.0247934 C100.082645,67.0247934 98.0165289,68.9256198 97.6859504,71.9834711 C97.4380165,73.9669421 98.677686,75.2892562 100.991736,75.2892562 C101.983471,75.2892562 103.057851,75.0413223 104.214876,74.4628099 L103.553719,77.4380165 C102.31405,77.768595 101.07438,77.9338843 99.9173554,77.9338843 C95.785124,77.9338843 93.7190083,75.6198347 94.1322314,71.9008264 C94.3801653,69.9173554 95.3719008,68.0165289 96.7768595,66.6942149 C98.5123967,65.1239669 100.495868,64.4628099 103.057851,64.4628099 C104.46281,64.4628099 105.867769,64.7107438 107.355372,65.2066116 L106.198347,67.8512397 L106.198347,67.8512397 Z" id="Path"></path>
            <path d="M120.247934,70 C120,71.9008264 119.173554,73.8016529 118.016529,75.0413223 C116.363636,76.9421488 114.214876,77.9338843 111.818182,77.9338843 C108.181818,77.9338843 106.363636,75.785124 106.77686,72.3966942 C107.024793,70.4958678 107.768595,68.7603306 108.842975,67.5206612 C110.578512,65.5371901 112.644628,64.4628099 115.289256,64.4628099 C118.842975,64.5454545 120.661157,66.6115702 120.247934,70 L120.247934,70 Z M114.710744,66.9421488 C113.636364,66.9421488 112.644628,67.5206612 111.735537,68.7603306 C111.07438,69.6694215 110.413223,71.1570248 110.247934,72.5619835 C110,74.3801653 110.826446,75.4545455 112.231405,75.4545455 C113.305785,75.4545455 114.297521,74.8760331 115.206612,73.6363636 C115.867769,72.7272727 116.528926,71.2396694 116.694215,69.8347107 C116.942149,67.9338843 116.198347,66.9421488 114.710744,66.9421488 L114.710744,66.9421488 Z" id="Shape"></path>
            <path d="M128.181818,64.7933884 L125.785124,71.9834711 C125.53719,72.6446281 125.454545,73.3057851 125.371901,73.8016529 C125.289256,74.7107438 125.950413,75.5371901 127.024793,75.5371901 C128.595041,75.5371901 129.338843,74.2975207 130.165289,71.9008264 L132.561983,64.8760331 L135.867769,64.8760331 L133.22314,72.892562 C132.066116,76.446281 130,78.0991736 126.446281,78.0991736 C123.140496,78.0991736 121.570248,76.5289256 121.900826,73.8016529 C121.983471,73.2231405 122.066116,72.6446281 122.31405,72.0661157 L124.710744,64.9586777 L128.181818,64.9586777 L128.181818,64.7933884 Z" id="Path"></path>
            <path d="M143.801653,64.7933884 C146.859504,64.7933884 148.347107,65.8677686 148.099174,68.0165289 C147.85124,69.9173554 146.446281,71.0743802 144.132231,71.2396694 C144.958678,71.7355372 145.123967,72.3966942 145.206612,73.3057851 L145.619835,77.6859504 L142.14876,77.6859504 L141.735537,73.553719 C141.652893,72.8099174 141.239669,72.5619835 140.330579,72.5619835 L139.669421,72.5619835 L138.016529,77.6859504 L134.628099,77.6859504 L138.92562,64.7933884 L143.801653,64.7933884 L143.801653,64.7933884 Z M140.495868,70.1652893 L141.735537,70.1652893 C143.38843,70.1652893 144.297521,69.5041322 144.46281,68.5123967 C144.545455,67.6033058 144.049587,67.1900826 142.809917,67.1900826 L141.487603,67.1900826 L140.495868,70.1652893 L140.495868,70.1652893 Z" id="Shape"></path>
            <polygon id="Path" points="154.958678 64.7933884 150.661157 77.6859504 147.272727 77.6859504 151.570248 64.7933884"></polygon>
            <polygon id="Path" points="167.520661 64.7933884 166.694215 67.1900826 161.07438 67.1900826 160.165289 69.7520661 165.53719 69.7520661 164.793388 72.0661157 159.421488 72.0661157 158.347107 75.2892562 164.214876 75.2892562 163.38843 77.6859504 154.049587 77.6859504 158.429752 64.7933884"></polygon>
            <path d="M175.289256,64.7933884 C178.347107,64.7933884 179.834711,65.8677686 179.586777,68.0165289 C179.338843,69.9173554 177.933884,71.0743802 175.619835,71.2396694 C176.446281,71.7355372 176.61157,72.3966942 176.694215,73.3057851 L177.107438,77.6859504 L173.719008,77.6859504 L173.305785,73.553719 C173.22314,72.8099174 172.809917,72.5619835 171.900826,72.5619835 L171.322314,72.5619835 L169.586777,77.6859504 L166.115702,77.6859504 L170.413223,64.7933884 L175.289256,64.7933884 L175.289256,64.7933884 Z M171.983471,70.1652893 L173.22314,70.1652893 C174.876033,70.1652893 175.785124,69.5041322 175.950413,68.5123967 C176.033058,67.6033058 175.53719,67.1900826 174.297521,67.1900826 L172.975207,67.1900826 L171.983471,70.1652893 L171.983471,70.1652893 Z" id="Shape"></path>
            <path d="M57.6859504,30.0826446 C53.553719,25.9504132 47.3553719,20.2479339 47.3553719,20.2479339 C46.8595041,19.7520661 46.6942149,19.2561983 47.6033058,19.2561983 L75.785124,19.2561983 L81.0743802,0.41322314 C81.0743802,0.41322314 49.9173554,0.41322314 39.0909091,0.41322314 C27.1900826,0.41322314 20.1652893,5.70247934 20.1652893,13.6363636 C20.1652893,16.5289256 20.661157,20.9917355 24.2975207,24.7107438 C29.8347107,30.2479339 40.8264463,40.4958678 42.3966942,42.0661157 C42.892562,42.5619835 43.0578512,43.0578512 42.1487603,43.0578512 C38.4297521,43.0578512 11.0743802,43.0578512 11.0743802,43.0578512 L6.11570248,60.9917355 C6.11570248,60.9917355 39.5041322,60.9917355 53.553719,60.9917355 C62.5619835,60.9917355 68.0991736,52.7272727 68.0991736,47.8512397 C68.1818182,40.2479339 65.9504132,38.3471074 57.6859504,30.0826446 L57.6859504,30.0826446 Z" id="Path"></path>
            <path d="M105.454545,0.330578512 C96.7768595,0.330578512 83.1404959,0.330578512 83.1404959,0.330578512 L66.2809917,60.8264463 C66.2809917,60.8264463 96.1983471,60.8264463 106.528926,60.8264463 C124.710744,60.8264463 135.619835,40.1652893 135.619835,26.5289256 C135.619835,7.68595041 120.330579,0.330578512 105.454545,0.330578512 L105.454545,0.330578512 Z M102.066116,42.9752066 C98.0991736,42.9752066 90.9917355,42.9752066 90.9917355,42.9752066 L97.6033058,19.2561983 C97.6033058,19.2561983 102.892562,19.2561983 105.289256,19.2561983 C111.570248,19.2561983 115.867769,23.0578512 115.867769,27.8512397 C115.867769,39.0909091 106.033058,42.9752066 102.066116,42.9752066 L102.066116,42.9752066 Z" id="Shape"></path>
            <path d="M171.983471,53.6363636 L172.396694,52.4793388 L168.842975,52.4793388 C168.512397,52.4793388 168.347107,52.7272727 168.264463,52.892562 C168.181818,52.9752066 168.181818,53.1404959 168.181818,53.3057851 C168.181818,53.4710744 168.181818,53.553719 168.264463,53.7190083 L171.983471,53.6363636 L171.983471,53.6363636 Z" id="Path"></path>
            <path d="M168.92562,54.2975207 C169.256198,54.7107438 169.338843,54.7933884 169.421488,54.8760331 C169.504132,54.9586777 169.504132,54.9586777 170.578512,56.2809917 C170.826446,56.6115702 170.991736,56.9421488 171.07438,57.2727273 L173.305785,57.2727273 C174.380165,57.2727273 174.958678,56.1983471 174.958678,55.7024793 C174.958678,54.7107438 174.049587,54.1322314 173.22314,54.1322314 C173.22314,54.1322314 169.834711,54.1322314 168.842975,54.1322314 C168.842975,54.214876 168.842975,54.2975207 168.92562,54.2975207 L168.92562,54.2975207 Z" id="Path"></path>
            <path d="M173.471074,0.330578512 C170,0.330578512 174.380165,0.330578512 165.123967,0.330578512 C144.628099,0.330578512 141.570248,15.2892562 139.090909,24.214876 L128.842975,60.8264463 L148.181818,60.8264463 L153.140496,42.892562 L166.942149,42.892562 L161.983471,60.8264463 L181.322314,60.8264463 C181.322314,60.8264463 188.347107,35.7024793 191.404959,24.7107438 C197.107438,4.1322314 179.090909,0.330578512 173.471074,0.330578512 L173.471074,0.330578512 Z M157.024793,29.338843 C157.024793,29.338843 158.677686,23.3884298 159.256198,21.2396694 C159.834711,19.0909091 161.735537,17.3553719 164.132231,17.3553719 C166.528926,17.3553719 165.53719,17.3553719 168.429752,17.3553719 C170.909091,17.3553719 173.38843,19.6694215 172.809917,21.9834711 C172.066116,24.6280992 170.743802,29.4214876 170.743802,29.4214876 L157.024793,29.4214876 L157.024793,29.338843 Z M180.743802,55.1239669 L179.256198,59.5041322 L176.942149,59.5041322 C176.942149,59.5041322 177.438017,58.0165289 177.603306,57.6033058 C177.272727,57.6033058 176.694215,57.6033058 176.446281,57.6033058 C175.785124,58.677686 174.628099,59.5041322 173.22314,59.5041322 L169.173554,59.5041322 L168.760331,59.5041322 L163.884298,59.5041322 L164.628099,57.3553719 C164.628099,57.3553719 167.438017,57.3553719 168.512397,57.3553719 C168.429752,57.2727273 168.429752,57.1900826 168.347107,57.107438 L167.933884,56.6115702 L166.528926,54.8760331 C166.198347,54.4628099 165.950413,53.9669421 165.950413,53.553719 C165.950413,53.3057851 166.033058,53.1404959 166.115702,52.9752066 C166.528926,52.0661157 167.68595,52.0661157 168.016529,52.0661157 L169.834711,52.0661157 L173.140496,52.0661157 L178.595041,52.0661157 C179.504132,52.0661157 180.165289,52.3966942 180.578512,52.9752066 C180.991736,53.3884298 181.07438,54.214876 180.743802,55.1239669 L180.743802,55.1239669 Z" id="Shape"></path>
            <path d="M178.595041,52.4793388 L175.123967,52.4793388 C175.619835,52.7272727 176.115702,53.1404959 176.363636,53.6363636 L178.181818,53.6363636 C178.512397,53.6363636 178.760331,53.8016529 178.92562,54.0495868 C179.090909,54.2975207 179.173554,54.6280992 179.008264,54.9586777 L178.595041,56.0330579 L176.942149,56.0330579 C176.942149,56.446281 176.77686,56.7768595 176.61157,57.1900826 L178.181818,57.1900826 C178.181818,57.1900826 177.68595,58.677686 177.520661,59.0909091 C177.933884,59.0909091 178.512397,59.0909091 178.760331,59.0909091 C179.008264,58.3471074 180.165289,55.0413223 180.165289,55.0413223 C180.247934,54.7107438 180.330579,54.4628099 180.330579,54.1322314 C180.330579,53.8016529 180.247934,53.4710744 180.082645,53.2231405 C179.834711,52.7272727 179.256198,52.4793388 178.595041,52.4793388 L178.595041,52.4793388 Z" id="Path"></path>
            <path d="M165.041322,57.8512397 C164.958678,58.0991736 164.793388,58.5950413 164.628099,59.0082645 C165.041322,59.0082645 166.859504,59.0082645 168.099174,59.0082645 C168.347107,59.0082645 168.595041,58.8429752 168.677686,58.5950413 C168.760331,58.4297521 168.760331,58.3471074 168.760331,58.1818182 C168.760331,58.0991736 168.760331,58.0165289 168.760331,57.8512397 C168.016529,57.8512397 165.289256,57.8512397 165.041322,57.8512397 L165.041322,57.8512397 Z" id="Path"></path>
            <path d="M178.347107,55.3719008 C178.429752,55.1239669 178.595041,54.6280992 178.595041,54.6280992 C178.677686,54.4628099 178.595041,54.2975207 178.512397,54.214876 C178.429752,54.1322314 178.347107,54.0495868 178.181818,54.0495868 L176.61157,54.0495868 C176.77686,54.4628099 176.942149,54.8760331 176.942149,55.3719008 C177.438017,55.3719008 178.099174,55.3719008 178.347107,55.3719008 L178.347107,55.3719008 Z" id="Path"></path>
            <path d="M173.140496,52.4793388 L172.892562,52.4793388 L172.479339,53.6363636 L173.057851,53.6363636 C174.132231,53.6363636 175.289256,54.4628099 175.289256,55.7024793 C175.289256,56.446281 174.545455,57.768595 173.140496,57.768595 L171.07438,57.768595 C171.07438,57.8512397 171.07438,58.0165289 170.991736,58.1818182 C170.991736,58.1818182 170.909091,58.5123967 170.909091,58.5123967 C170.826446,58.677686 170.743802,58.7603306 170.578512,58.9256198 C171.818182,58.9256198 173.22314,58.9256198 173.22314,58.9256198 C175.123967,58.9256198 176.528926,56.9421488 176.528926,55.6198347 C176.528926,53.8842975 175.041322,52.4793388 173.140496,52.4793388 L173.140496,52.4793388 Z" id="Path"></path>
            <path d="M170.495868,57.2727273 C170.330579,57.0247934 170.165289,56.6942149 170,56.446281 C169.173554,55.3719008 169.173554,55.3719008 169.090909,55.2892562 L169.008264,55.2066116 C168.92562,55.0413223 168.677686,54.7933884 168.099174,54.0495868 C167.933884,53.8016529 167.85124,53.553719 167.85124,53.2231405 C167.85124,53.0578512 167.933884,52.8099174 168.016529,52.6446281 C168.016529,52.5619835 168.099174,52.5619835 168.099174,52.4793388 C167.768595,52.4793388 167.024793,52.5619835 166.694215,53.1404959 C166.61157,53.3057851 166.61157,53.3884298 166.61157,53.553719 C166.61157,53.8842975 166.77686,54.214876 167.024793,54.5454545 L168.429752,56.2809917 L168.842975,56.7768595 C169.173554,57.1900826 169.421488,57.6859504 169.421488,58.1818182 C169.421488,58.4297521 169.338843,58.5950413 169.256198,58.8429752 C169.256198,58.9256198 169.173554,59.0082645 169.090909,59.0082645 C169.090909,59.0082645 169.173554,59.0082645 169.256198,59.0082645 C170.082645,59.0082645 170.413223,58.5950413 170.578512,58.3471074 C170.578512,58.3471074 170.661157,58.1818182 170.661157,58.1818182 C170.661157,58.0165289 170.661157,57.9338843 170.661157,57.8512397 C170.661157,57.768595 170.661157,57.768595 170.661157,57.6859504 C170.578512,57.5206612 170.495868,57.3553719 170.495868,57.2727273 L170.495868,57.2727273 Z" id="Path"></path>
            <path d="M198.677686,7.85123967 C197.933884,8.59504132 196.942149,9.00826446 195.867769,9.00826446 C194.793388,9.00826446 193.801653,8.59504132 193.057851,7.85123967 C192.31405,7.10743802 191.900826,6.11570248 191.900826,5.04132231 C191.900826,3.96694215 192.31405,2.97520661 193.057851,2.23140496 C193.801653,1.48760331 194.793388,1.07438017 195.867769,1.07438017 C196.942149,1.07438017 197.933884,1.48760331 198.677686,2.23140496 C199.421488,2.97520661 199.834711,3.96694215 199.834711,5.04132231 C199.834711,6.11570248 199.421488,7.02479339 198.677686,7.85123967 L198.677686,7.85123967 Z M193.38843,2.56198347 C192.727273,3.2231405 192.396694,4.04958678 192.396694,4.95867769 C192.396694,5.95041322 192.727273,6.69421488 193.38843,7.43801653 C194.049587,8.09917355 194.876033,8.42975207 195.867769,8.42975207 C196.859504,8.42975207 197.603306,8.09917355 198.347107,7.43801653 C199.008264,6.7768595 199.338843,5.95041322 199.338843,4.95867769 C199.338843,3.96694215 199.008264,3.2231405 198.347107,2.56198347 C197.68595,1.90082645 196.859504,1.57024793 195.867769,1.57024793 C194.876033,1.57024793 194.049587,1.90082645 193.38843,2.56198347 L193.38843,2.56198347 Z M195.785124,2.72727273 C196.363636,2.72727273 196.694215,2.80991736 197.024793,2.89256198 C197.520661,3.05785124 197.68595,3.47107438 197.68595,3.96694215 C197.68595,4.38016529 197.520661,4.62809917 197.272727,4.79338843 C197.107438,4.87603306 196.942149,4.95867769 196.61157,5.04132231 C196.942149,5.12396694 197.190083,5.20661157 197.355372,5.45454545 C197.520661,5.70247934 197.603306,5.95041322 197.603306,6.11570248 L197.603306,6.44628099 C197.603306,6.52892562 197.603306,6.69421488 197.603306,6.7768595 C197.603306,6.85950413 197.603306,6.94214876 197.603306,7.02479339 L197.603306,7.10743802 L196.859504,7.10743802 C196.859504,7.10743802 196.859504,7.10743802 196.859504,7.02479339 C196.859504,7.02479339 196.859504,7.02479339 196.859504,6.94214876 L196.859504,6.7768595 L196.859504,6.61157025 C196.859504,6.11570248 196.694215,5.78512397 196.446281,5.61983471 C196.280992,5.53719008 195.950413,5.45454545 195.53719,5.45454545 L194.958678,5.45454545 L194.958678,7.19008264 L194.214876,7.19008264 L194.214876,2.80991736 L195.785124,2.80991736 L195.785124,2.72727273 Z M196.61157,3.47107438 C196.446281,3.38842975 196.115702,3.30578512 195.702479,3.30578512 L195.041322,3.30578512 L195.041322,4.87603306 L195.785124,4.87603306 C196.115702,4.87603306 196.363636,4.87603306 196.528926,4.79338843 C196.859504,4.7107438 197.024793,4.46280992 197.024793,4.1322314 C196.942149,3.80165289 196.77686,3.55371901 196.61157,3.47107438 L196.61157,3.47107438 Z" id="Shape"></path>
        </g>
    </g>
</svg>