<?xml version="1.0" encoding="UTF-8"?>
<svg width="200px" height="120px" viewBox="0 0 200 120" version="1.1" xmlns="http://www.w3.org/2000/svg" xmlns:xlink="http://www.w3.org/1999/xlink">
    <!-- Generator: Sketch 57.1 (83088) - https://sketch.com -->
    <title>State/05 Carriers/17 Tnt</title>
    <desc>Created with Sketch.</desc>
    <g id="State/05-Carriers/17-Tnt" stroke="none" stroke-width="1" fill="none" fill-rule="evenodd">
        <g id="tnt" transform="translate(2.000000, 24.000000)" fill="#FF5000" fill-rule="nonzero">
            <path d="M48.606807,20.7371007 C49.088222,20.7371007 49.5696373,21.1302211 49.5696373,21.7199017 L49.5696373,27.7149877 C49.5696373,28.2063882 49.1845052,28.6977886 48.606807,28.6977886 L41.866995,28.6977886 C41.0004477,28.6977886 40.1339007,28.5995086 40.1339007,28.5995086 L40.1339007,52.4815725 C40.1339007,52.972973 39.7487684,53.4643734 39.1710702,53.4643734 L31.8535602,53.4643734 C31.372145,53.4643734 30.89073,53.0712532 30.89073,52.4815725 L30.89073,28.5012284 C30.89073,28.5012284 30.2167489,28.5995086 29.5427675,28.5995086 L22.4178235,28.5995086 C21.9364084,28.5995086 21.4549933,28.2063882 21.4549933,27.6167077 L21.4549933,21.6216216 C21.4549933,21.1302211 21.8401254,20.6388206 22.4178235,20.6388206 L48.606807,20.6388206 L48.606807,20.7371007 Z" id="Path"></path>
            <path d="M172.908195,20.7371007 C173.38961,20.7371007 173.871025,21.1302211 173.871025,21.7199017 L173.871025,27.7149877 C173.871025,28.2063882 173.485893,28.6977886 172.908195,28.6977886 L166.168383,28.6977886 C165.301836,28.6977886 164.435289,28.5995086 164.435289,28.5995086 L164.435289,52.4815725 C164.435289,52.972973 164.050157,53.4643734 163.472459,53.4643734 L156.154948,53.4643734 C155.673533,53.4643734 155.192118,53.0712532 155.192118,52.4815725 L155.192118,28.5012284 C155.192118,28.5012284 154.518137,28.5995086 153.844156,28.5995086 L146.622929,28.5995086 C146.141514,28.5995086 145.660098,28.2063882 145.660098,27.6167077 L145.660098,21.6216216 C145.660098,21.1302211 146.045231,20.6388206 146.622929,20.6388206 L172.908195,20.6388206 L172.908195,20.7371007 Z" id="Path"></path>
            <path d="M159.813704,0.294840295 C146.33408,0.294840295 134.58755,8.15724816 128.714286,19.6560197 C122.841021,8.15724816 111.094492,0.294840295 97.614868,0.294840295 C84.1352441,0.294840295 72.3887148,8.15724816 66.51545,19.6560197 C60.6421855,8.15724816 48.8956561,0.294840295 35.4160323,0.294840295 C16.0631437,0.294840295 0.3690103,16.4127764 0.3690103,36.1670761 C0.3690103,56.0196559 16.0631437,72.039312 35.4160323,72.039312 C48.8956561,72.039312 60.6421855,64.1769041 66.51545,52.6781327 C72.3887148,64.1769041 84.1352441,72.039312 97.614868,72.039312 C111.094492,72.039312 122.841021,64.1769041 128.714286,52.6781327 C134.58755,64.1769041 146.33408,72.039312 159.813704,72.039312 C179.166592,72.039312 194.860725,55.9213759 194.860725,36.1670761 C194.860725,16.4127764 179.070309,0.294840295 159.813704,0.294840295 M35.4160323,64.0786241 C20.492163,64.0786241 8.26421855,51.5970516 8.26421855,36.2653564 C8.26421855,20.9336609 20.39588,8.45208845 35.4160323,8.45208845 C50.3399016,8.45208845 62.5678459,20.9336609 62.5678459,36.2653564 C62.5678459,51.5970516 50.4361845,64.0786241 35.4160323,64.0786241 M97.614868,64.0786241 C82.6909986,64.0786241 70.4630541,51.5970516 70.4630541,36.2653564 C70.4630541,20.9336609 82.5947157,8.45208845 97.614868,8.45208845 C112.538737,8.45208845 124.766682,20.9336609 124.766682,36.2653564 C124.766682,51.5970516 112.538737,64.0786241 97.614868,64.0786241 M159.813704,64.0786241 C144.889834,64.0786241 132.66189,51.5970516 132.66189,36.2653564 C132.66189,20.9336609 144.793551,8.45208845 159.813704,8.45208845 C174.737573,8.45208845 186.965517,20.9336609 186.965517,36.2653564 C186.965517,51.5970516 174.737573,64.0786241 159.813704,64.0786241" id="Shape"></path>
            <path d="M111.190775,20.1474201 C111.768473,20.1474201 112.153605,20.5405405 112.153605,21.1302211 L112.153605,51.4987716 C112.153605,51.990172 111.768473,52.4815725 111.190775,52.4815725 L105.028661,52.4815725 C104.643529,52.4815725 104.258397,52.2850123 103.969548,51.990172 C103.969548,51.990172 92.8969995,36.5601966 92.6081505,36.1670761 C92.2230184,35.6756757 91.8378864,34.6928748 91.8378864,34.6928748 L91.8378864,51.5970516 C91.8378864,52.088452 91.4527541,52.5798525 90.8750559,52.5798525 L84.0389611,52.5798525 C83.5575459,52.5798525 83.0761307,52.1867323 83.0761307,51.5970516 L83.0761307,21.031941 C83.0761307,20.5405405 83.461263,20.04914 84.0389611,20.04914 L90.2010748,20.04914 C90.5862068,20.04914 90.9713391,20.2457002 91.2601882,20.5405405 C91.2601882,20.5405405 102.14017,35.7739557 102.621585,36.3636364 C103.006718,36.8550368 103.39185,37.8378377 103.39185,37.8378377 L103.39185,21.031941 C103.39185,20.5405405 103.776982,20.04914 104.35468,20.04914 C104.258397,20.1474201 110.70936,20.1474201 111.190775,20.1474201" id="Path"></path>
        </g>
    </g>
</svg>