<?xml version="1.0" encoding="UTF-8"?>
<svg width="200px" height="120px" viewBox="0 0 200 120" version="1.1" xmlns="http://www.w3.org/2000/svg" xmlns:xlink="http://www.w3.org/1999/xlink">
    <!-- Generator: Sketch 57.1 (83088) - https://sketch.com -->
    <title>State/05 Carriers/04 Ups</title>
    <desc>Created with Sketch.</desc>
    <g id="State/05-Carriers/04-Ups" stroke="none" stroke-width="1" fill="none" fill-rule="evenodd">
        <g id="ups" transform="translate(50.000000, 0.000000)">
            <polygon id="Path" fill="#301506" transform="translate(49.337987, 63.156776) scale(-1, 1) rotate(-180.000000) translate(-49.337987, -63.156776) " points="2.59250243 90.5924386 3.0243184 41.1636334 14.0357595 27.4453846 47.0712999 9.80774141 87.6628286 29.8407201 96.0834713 50.0914566 95.2198393 115.634828 64.5601509 116.50581 32.6054284 111.279869 3.45742454 94.2954992"></polygon>
            <path d="M49.8909445,-2.13162821e-13 C30.6484907,-2.13162821e-13 13.8636806,3.75810147 -1.98951966e-13,11.1672668 L-1.98951966e-13,70.4013093 C-1.98951966e-13,82.8652046 4.6436222,93.287725 13.4264849,100.548609 C21.5813048,107.294926 46.8013632,118.412504 49.8919182,119.76275 C52.8227848,118.476334 78.3417722,107.186907 86.3670886,100.548609 C95.1450828,93.291653 99.7898734,82.8659902 99.7898734,70.4013093 L99.7898734,11.1672668 C85.9242454,3.75711948 69.1394352,-2.13162821e-13 49.8891918,-2.13162821e-13 L49.8909445,-2.13162821e-13 Z M78.3836417,11.470311 C84.1219085,11.5459738 89.7563778,11.9034697 95.2029211,12.4139509 L95.2029211,70.4008576 C95.2029211,81.5441637 91.1935735,90.5455385 83.4576436,96.971725 C76.5466407,102.711496 55.7069133,112.127863 49.8919182,114.712871 C43.9990263,112.092903 23.1071081,102.557715 16.3203505,96.9740818 C8.630185,90.6578789 4.58227848,81.4428216 4.58227848,70.4032144 L4.58227848,36.5203993 C26.6815969,16.0811195 53.5170399,11.1436399 78.3816943,11.4716268 L78.3836417,11.470311 Z M51.1918208,38.471293 C46.4572541,38.471293 42.6371957,39.5386056 39.492113,41.5859902 L39.492113,98.638036 L48.1756573,98.638036 L48.1756573,80.2063502 C49.042259,80.4641244 50.3000974,80.7050278 52.0819864,80.7050278 C61.7143135,80.7050278 67.2506329,71.9479738 67.2506329,59.1619836 C67.2506329,46.4009362 61.5499513,38.471293 51.1920156,38.471293 L51.1918208,38.471293 Z M80.8627069,38.471293 C75.1518987,38.6382324 69.1797468,42.8103437 69.2159979,49.8830769 C69.2307692,54.5400982 70.5108861,58.0228478 77.6675755,62.2578069 C81.4868549,64.5187561 83.0257059,66.0086416 83.0915287,68.7558756 C83.164557,71.8098854 81.0722493,73.6513257 77.8882181,73.6389525 C75.1180136,73.6168576 71.8064265,72.066383 69.5888997,70.0752864 L69.5888997,78.1345336 C72.307887,79.7695581 75.7006816,80.8503437 79.1281402,80.8503437 C87.7065239,80.8503437 91.5370983,74.7391817 91.702629,69.1392471 C91.8657254,64.0352209 90.4672249,60.1732242 83.2130477,55.8746318 C79.9754625,53.9597381 77.4186952,52.7012111 77.5039922,49.5146318 C77.5891918,46.4040589 80.1497566,45.311293 82.6083739,45.3334861 C85.64148,45.360491 88.5754625,47.0545925 90.3865628,48.9277905 L90.3865628,41.3173159 C88.8602726,40.1315548 85.6288218,38.3237971 80.8625122,38.4710966 L80.8627069,38.471293 Z M9.01635833,39.3573879 L9.01635833,66.8768642 C9.01635833,76.1543764 13.3680623,80.8510704 21.9561831,80.8510704 C27.2703019,80.8510704 31.7211295,79.6106907 35.0366115,77.3372897 L35.0366115,39.3573879 L26.3721519,39.3573879 L26.3721519,72.3546383 C25.4276534,73.0076661 24.0266796,73.4248576 22.2642648,73.4248576 C18.2866602,73.4248576 17.6923077,69.7462979 17.6923077,67.2643993 L17.6923077,39.3580164 L9.01635833,39.3580164 L9.01635833,39.3573879 Z M51.2502434,45.5217741 C56.2866602,45.5217741 58.3742941,49.5770278 58.3742941,59.3848183 C58.3742941,68.9543764 55.9867575,73.5778134 50.9916261,73.5778134 C49.8158715,73.5778134 48.793963,73.2841375 48.1731256,73.0484583 L48.1731256,46.1554959 C48.876631,45.8019771 50.0720156,45.5225597 51.2502434,45.5225597 L51.2502434,45.5217741 Z" id="Shape" fill="#FAB80A" fill-rule="nonzero" transform="translate(49.894937, 59.881375) rotate(-360.000000) translate(-49.894937, -59.881375) "></path>
        </g>
    </g>
</svg>