<?xml version="1.0" encoding="UTF-8"?>
<svg width="200px" height="120px" viewBox="0 0 200 120" version="1.1" xmlns="http://www.w3.org/2000/svg" xmlns:xlink="http://www.w3.org/1999/xlink">
    <!-- Generator: Sketch 57.1 (83088) - https://sketch.com -->
    <title>State/05 Carriers/27 Brt</title>
    <desc>Created with Sketch.</desc>
    <g id="State/05-Carriers/27-Brt" stroke="none" stroke-width="1" fill="none" fill-rule="evenodd">
        <g id="brt" transform="translate(40.000000, 0.000000)" fill-rule="nonzero">
            <path d="M-7.10542736e-14,-5.68434189e-14 L119.840426,-5.68434189e-14 L119.840426,119.840426 L-7.10542736e-14,119.840426 L-7.10542736e-14,-5.68434189e-14 L-7.10542736e-14,-5.68434189e-14 Z M28.787234,14.6170213 C28.787234,32.4893617 28.787234,50.3617021 28.787234,68.2021277 C49.5319149,68.2021277 70.3085106,68.2021277 91.0531915,68.2021277 C91.0531915,50.3297872 91.0531915,32.4574468 91.0531915,14.6170213 C70.2765957,14.6170213 49.5319149,14.6170213 28.787234,14.6170213 L28.787234,14.6170213 Z M30.1914894,73.9787234 C29.3617021,74.6489362 28.9148936,75.7021277 28.787234,76.7553191 C28.6914894,77.9042553 28.7553191,79.1170213 29.3297872,80.1702128 C29.7765957,81.0319149 30.6382979,81.6702128 31.5957447,81.8617021 C32.6489362,82.0851064 33.8297872,81.9893617 34.7553191,81.3510638 C35.5851064,80.8085106 36.0638298,79.8510638 36.2234043,78.893617 C35.6170213,78.893617 35.0425532,78.8617021 34.4361702,78.893617 C34.3404255,79.2765957 34.1808511,79.6595745 33.9255319,79.9148936 C33.1914894,80.6489362 31.8191489,80.5851064 31.1808511,79.7553191 C30.7021277,79.1489362 30.5744681,78.3510638 30.5425532,77.5851064 C30.5425532,76.8191489 30.6702128,75.9574468 31.212766,75.3510638 C31.8191489,74.6489362 32.9680851,74.5212766 33.7340426,75.0319149 C34.1170213,75.287234 34.3085106,75.7340426 34.4361702,76.1489362 C35.0425532,76.1489362 35.6170213,76.1489362 36.2234043,76.1489362 C36.1276596,74.8723404 35.2021277,73.7553191 33.9893617,73.3723404 C32.7446809,72.9893617 31.2446809,73.1170213 30.1914894,73.9787234 L30.1914894,73.9787234 Z M40.7553191,73.3085106 C39.7340426,73.5319149 38.7765957,74.2340426 38.3297872,75.1914894 C37.787234,76.2765957 37.7553191,77.5851064 37.9468085,78.7659574 C38.106383,79.787234 38.6808511,80.7765957 39.5744681,81.3191489 C40.7553191,82.0531915 42.287234,82.1489362 43.5957447,81.606383 C44.393617,81.287234 45.0319149,80.6808511 45.4148936,79.9148936 C45.893617,78.9893617 45.9255319,77.9042553 45.8617021,76.8510638 C45.7659574,75.8297872 45.3829787,74.8085106 44.6170213,74.1382979 C43.5638298,73.2446809 42.0638298,72.9893617 40.7553191,73.3085106 L40.7553191,73.3085106 Z M47.4574468,73.4042553 C47.4574468,76.1808511 47.4574468,78.9574468 47.4574468,81.7340426 C48.0319149,81.7340426 48.6382979,81.7340426 49.212766,81.7340426 C49.2446809,80.6489362 49.212766,79.5638298 49.212766,78.4787234 C49.9148936,78.4787234 50.6489362,78.4787234 51.3510638,78.4787234 C51.7340426,78.5106383 52.1808511,78.6702128 52.2765957,79.0851064 C52.4680851,79.9468085 52.2446809,80.8404255 52.5319149,81.7021277 C53.1702128,81.7340426 53.8404255,81.7021277 54.4787234,81.7021277 C54.4787234,81.6382979 54.4787234,81.5106383 54.4787234,81.4468085 C54.3829787,81.3510638 54.2234043,81.287234 54.1914894,81.1276596 C53.9680851,80.2340426 54.287234,79.2446809 53.9042553,78.3510638 C53.7446809,78 53.4255319,77.8404255 53.106383,77.6808511 C54.3191489,77.2340426 54.6382979,75.606383 54.0638298,74.5531915 C53.6489362,73.7234043 52.6914894,73.3404255 51.8297872,73.3404255 C50.3617021,73.3723404 48.9255319,73.4042553 47.4574468,73.4042553 L47.4574468,73.4042553 Z M56.106383,73.3723404 C56.0744681,76.1489362 56.106383,78.9255319 56.106383,81.7340426 C56.6808511,81.7340426 57.2553191,81.7340426 57.8297872,81.7340426 C57.8297872,80.6489362 57.8297872,79.5638298 57.8297872,78.4787234 C58.5638298,78.4787234 59.2978723,78.4468085 60.0319149,78.4787234 C60.4468085,78.4787234 60.893617,78.7340426 60.9255319,79.1808511 C61.0212766,80.0106383 60.9255319,80.8723404 61.1489362,81.7021277 C61.8191489,81.7021277 62.4574468,81.7021277 63.1276596,81.7021277 C63.1276596,81.6382979 63.1276596,81.5425532 63.1276596,81.4787234 C63,81.3510638 62.8404255,81.2553191 62.8085106,81.0957447 C62.6489362,80.2340426 62.8723404,79.3404255 62.5851064,78.5106383 C62.4574468,78.1276596 62.106383,77.8723404 61.7553191,77.7446809 C62.106383,77.5531915 62.4574468,77.2978723 62.6489362,76.9468085 C63.1914894,76.0212766 63,74.6808511 62.1702128,73.9787234 C61.6595745,73.5638298 60.9893617,73.4042553 60.3510638,73.4042553 C58.9468085,73.3723404 57.5425532,73.4042553 56.106383,73.3723404 L56.106383,73.3723404 Z M64.7234043,73.4042553 C64.7234043,76.1808511 64.7234043,78.9574468 64.7234043,81.7340426 C65.2978723,81.7340426 65.9042553,81.7340426 66.4787234,81.7340426 C66.4787234,78.9574468 66.4787234,76.1808511 66.4787234,73.4042553 C65.9042553,73.4042553 65.3297872,73.3723404 64.7234043,73.4042553 L64.7234043,73.4042553 Z M68.106383,73.3723404 C68.106383,76.1489362 68.106383,78.9255319 68.106383,81.7340426 C70.2446809,81.7340426 72.3510638,81.7340426 74.4893617,81.7340426 C74.4893617,81.2234043 74.4893617,80.7446809 74.4893617,80.2340426 C72.9574468,80.2340426 71.393617,80.2340426 69.8617021,80.2340426 C69.8617021,79.5319149 69.8617021,78.8297872 69.8617021,78.0957447 C71.2021277,78.0957447 72.5425532,78.0957447 73.9148936,78.0957447 C73.9148936,77.5851064 73.9148936,77.106383 73.9148936,76.5957447 C72.5744681,76.5957447 71.2340426,76.5957447 69.8617021,76.5957447 C69.8617021,76.0212766 69.8617021,75.4787234 69.8617021,74.9042553 C71.3297872,74.9042553 72.7978723,74.9042553 74.2659574,74.9042553 C74.2659574,74.393617 74.2659574,73.8829787 74.2659574,73.3723404 C72.2234043,73.3723404 70.1489362,73.4042553 68.106383,73.3723404 L68.106383,73.3723404 Z M76.0851064,73.4042553 C76.0851064,76.1808511 76.0851064,78.9574468 76.0851064,81.7340426 C76.6595745,81.7340426 77.2340426,81.7340426 77.8085106,81.7340426 C77.8404255,80.6489362 77.8085106,79.5638298 77.8085106,78.4787234 C78.4787234,78.4787234 79.1489362,78.4787234 79.787234,78.4787234 C80.1382979,78.4787234 80.5531915,78.5425532 80.7446809,78.8617021 C80.9361702,79.1808511 80.9042553,79.5638298 80.9361702,79.9148936 C80.9361702,80.5212766 80.9680851,81.1276596 81.1276596,81.7340426 C81.7659574,81.7340426 82.4361702,81.7340426 83.0744681,81.7340426 C83.0744681,81.6702128 83.0744681,81.5425532 83.0744681,81.4787234 C82.9468085,81.3829787 82.8191489,81.3191489 82.787234,81.1595745 C82.5957447,80.2659574 82.8510638,79.3404255 82.5319149,78.4787234 C82.4042553,78.1276596 82.0531915,77.9042553 81.7340426,77.7446809 C83.2021277,77.1702128 83.2978723,75 82.212766,74.0425532 C81.6702128,73.5319149 80.8723404,73.4042553 80.1702128,73.4042553 C78.7978723,73.4042553 77.4255319,73.3723404 76.0851064,73.4042553 L76.0851064,73.4042553 Z M84.6702128,73.4042553 C84.6702128,76.1808511 84.6702128,78.9574468 84.6702128,81.7340426 C86.7765957,81.7340426 88.9148936,81.7340426 91.0212766,81.7340426 C91.0212766,81.2234043 91.0212766,80.7446809 91.0212766,80.2340426 C89.4893617,80.2340426 87.9255319,80.2340426 86.393617,80.2340426 C86.393617,79.5319149 86.393617,78.8297872 86.393617,78.0957447 C87.7340426,78.0957447 89.106383,78.0957447 90.4468085,78.0957447 C90.4468085,77.5851064 90.4468085,77.106383 90.4468085,76.5957447 C89.106383,76.5957447 87.7340426,76.5957447 86.393617,76.5957447 C86.393617,76.0212766 86.393617,75.4787234 86.393617,74.9042553 C87.8617021,74.9042553 89.3617021,74.9042553 90.8297872,74.9042553 C90.8297872,74.393617 90.8297872,73.8829787 90.8297872,73.3723404 C88.787234,73.4042553 86.7446809,73.3723404 84.6702128,73.4042553 L84.6702128,73.4042553 Z M37.2765957,85.9787234 C36.5106383,86.5531915 36.2553191,87.5744681 36.3829787,88.5 C36.4468085,89.1382979 36.7978723,89.7446809 37.3723404,90.0319149 C38.4255319,90.5744681 39.6702128,90.606383 40.7553191,91.1170213 C41.393617,91.4042553 41.2659574,92.393617 40.6914894,92.6808511 C40.0531915,92.9680851 39.2553191,93 38.5851064,92.712766 C38.106383,92.5212766 37.8829787,92.0106383 37.8510638,91.5319149 C37.3085106,91.5319149 36.7659574,91.5319149 36.2234043,91.5319149 C36.2553191,92.2659574 36.4787234,93.0638298 37.0212766,93.5744681 C37.7553191,94.2765957 38.8085106,94.4361702 39.7659574,94.4042553 C40.6595745,94.3723404 41.6170213,94.1170213 42.2234043,93.3829787 C42.8297872,92.712766 42.9255319,91.7234043 42.7340426,90.8617021 C42.5744681,90.1914894 42,89.6808511 41.3617021,89.4574468 C40.4042553,89.1382979 39.3829787,88.9468085 38.4255319,88.6276596 C37.8191489,88.4042553 37.787234,87.4787234 38.3297872,87.1276596 C38.9042553,86.7446809 39.7021277,86.7765957 40.3085106,87.0638298 C40.7234043,87.2553191 40.8829787,87.7021277 40.9468085,88.1170213 C41.4893617,88.1170213 42.0319149,88.1170213 42.5744681,88.1170213 C42.5425532,87.4787234 42.3510638,86.8404255 41.9361702,86.3617021 C41.4255319,85.7234043 40.6276596,85.4042553 39.8297872,85.3404255 C38.9680851,85.3085106 38.0106383,85.4042553 37.2765957,85.9787234 L37.2765957,85.9787234 Z M68.0425532,86.2978723 C67.4680851,87 67.4042553,87.9574468 67.5638298,88.787234 C67.6914894,89.3297872 68.0744681,89.8085106 68.5851064,90.0638298 C69.6382979,90.5744681 70.8510638,90.606383 71.8723404,91.0851064 C72.5106383,91.3723404 72.3829787,92.3617021 71.7765957,92.6489362 C71.1382979,92.9361702 70.3404255,92.9680851 69.6702128,92.6808511 C69.1914894,92.4893617 68.9680851,91.9787234 68.9361702,91.5 C68.393617,91.5 67.8510638,91.5 67.3085106,91.5 C67.3404255,92.2021277 67.5319149,92.9680851 68.0425532,93.4787234 C68.7446809,94.1808511 69.7659574,94.3723404 70.7234043,94.3723404 C71.6808511,94.3723404 72.7340426,94.0851064 73.3723404,93.3191489 C73.9148936,92.6170213 74.0425532,91.6276596 73.8191489,90.7659574 C73.6276596,90.1276596 73.0851064,89.6489362 72.4468085,89.4574468 C71.4893617,89.1382979 70.4680851,88.9468085 69.5106383,88.6276596 C68.9042553,88.4042553 68.8723404,87.4787234 69.3829787,87.1276596 C69.9574468,86.7446809 70.7553191,86.7446809 71.393617,87.0638298 C71.8085106,87.2553191 71.9680851,87.7021277 72.0319149,88.1170213 C72.5744681,88.1170213 73.1170213,88.1170213 73.6595745,88.1170213 C73.6276596,87.4468085 73.4042553,86.712766 72.9255319,86.2340426 C72.3191489,85.5638298 71.3617021,85.3085106 70.5,85.3404255 C69.6382979,85.3404255 68.6489362,85.5638298 68.0425532,86.2978723 L68.0425532,86.2978723 Z M76.3085106,86.0106383 C75.6702128,86.5531915 75.4148936,87.4148936 75.4787234,88.212766 C75.5106383,88.8510638 75.7659574,89.5531915 76.3404255,89.9042553 C77.4255319,90.5744681 78.7978723,90.5425532 79.9468085,91.1170213 C80.5531915,91.4361702 80.3617021,92.393617 79.787234,92.6489362 C79.1489362,92.9361702 78.3510638,92.9680851 77.6808511,92.6489362 C77.2021277,92.4574468 77.0106383,91.9468085 76.9468085,91.4680851 C76.4042553,91.4680851 75.8617021,91.4680851 75.3191489,91.4680851 C75.3510638,92.2340426 75.5744681,93.0319149 76.1808511,93.5425532 C76.9148936,94.1808511 77.9042553,94.3404255 78.8297872,94.3404255 C79.7234043,94.3085106 80.712766,94.0531915 81.3191489,93.3510638 C81.893617,92.6808511 82.0212766,91.7234043 81.8617021,90.8617021 C81.7340426,90.1595745 81.1595745,89.6489362 80.4893617,89.4255319 C79.5,89.0744681 78.4787234,88.9148936 77.4893617,88.5638298 C76.8829787,88.3085106 76.9148936,87.3510638 77.4574468,87.0638298 C78.0638298,86.712766 78.8617021,86.7446809 79.4680851,87.0957447 C79.8191489,87.3191489 79.9468085,87.7340426 80.0425532,88.1170213 C80.5851064,88.1170213 81.1276596,88.1170213 81.7021277,88.1170213 C81.6382979,87.4148936 81.4468085,86.712766 80.9361702,86.2021277 C80.3617021,85.5638298 79.4680851,85.3085106 78.606383,85.3085106 C77.8085106,85.3404255 76.9468085,85.5 76.3085106,86.0106383 L76.3085106,86.0106383 Z M86.1702128,85.4680851 C85.5,85.6276596 84.8617021,85.9787234 84.4148936,86.4893617 C83.712766,87.287234 83.4255319,88.3404255 83.3617021,89.3617021 C83.2978723,90.5425532 83.4255319,91.787234 84.0957447,92.8085106 C85.3085106,94.6595745 88.212766,94.8829787 89.7765957,93.3829787 C90.5425532,92.6808511 90.893617,91.6595745 90.9893617,90.6702128 C91.0531915,89.8085106 91.0531915,88.8829787 90.7978723,88.0531915 C90.5744681,87.2234043 90.0957447,86.4574468 89.3617021,85.9787234 C88.4680851,85.3723404 87.2553191,85.212766 86.1702128,85.4680851 L86.1702128,85.4680851 Z M28.787234,85.5638298 C28.787234,88.4361702 28.787234,91.3085106 28.787234,94.1808511 C30.8297872,94.1808511 32.8404255,94.1808511 34.8510638,94.1808511 C34.8510638,93.6702128 34.8510638,93.1276596 34.8510638,92.6170213 C33.3829787,92.6170213 31.8829787,92.6170213 30.4148936,92.6170213 C30.4148936,91.8829787 30.4148936,91.1489362 30.4148936,90.4148936 C31.7234043,90.4148936 33,90.4148936 34.3085106,90.4148936 C34.3085106,89.9042553 34.3085106,89.393617 34.3085106,88.8829787 C33,88.8829787 31.7234043,88.8829787 30.4148936,88.8829787 C30.4148936,88.2765957 30.4148936,87.7021277 30.4148936,87.0957447 C31.8191489,87.0957447 33.2234043,87.0957447 34.6595745,87.0957447 C34.6595745,86.5851064 34.6595745,86.0425532 34.6595745,85.5319149 C32.6808511,85.5638298 30.7340426,85.5638298 28.787234,85.5638298 L28.787234,85.5638298 Z M44.2340426,85.5638298 C44.2340426,88.4361702 44.2340426,91.3085106 44.2340426,94.1808511 C44.8085106,94.1808511 45.3510638,94.1808511 45.9255319,94.1808511 C45.9255319,93.1595745 45.9255319,92.106383 45.9255319,91.0851064 C46.5957447,91.0851064 47.2978723,91.0851064 47.9680851,91.0851064 C48.7340426,91.0851064 49.5,90.7021277 49.9148936,90.0638298 C50.5212766,89.106383 50.5531915,87.8617021 50.106383,86.8404255 C49.7234043,86.0425532 48.8617021,85.5957447 48,85.5957447 C46.7234043,85.5638298 45.4787234,85.5638298 44.2340426,85.5638298 L44.2340426,85.5638298 Z M51.7659574,85.5638298 C51.7659574,88.4361702 51.7659574,91.3085106 51.7659574,94.1808511 C52.3085106,94.1808511 52.8829787,94.1808511 53.4255319,94.1808511 C53.4255319,93.0638298 53.4255319,91.9468085 53.4255319,90.8297872 C54.1595745,90.8617021 54.9255319,90.7659574 55.6595745,90.893617 C55.9468085,90.9255319 56.2340426,91.1170213 56.3297872,91.4361702 C56.5531915,92.3297872 56.2659574,93.3510638 56.6170213,94.212766 C57.2234043,94.2446809 57.8617021,94.212766 58.4680851,94.212766 C58.5319149,93.893617 58.1489362,93.8297872 58.1489362,93.5425532 C58.0212766,92.6489362 58.2446809,91.6914894 57.893617,90.8297872 C57.7659574,90.4787234 57.4468085,90.287234 57.1276596,90.0957447 C58.2765957,89.6170213 58.5319149,88.1170213 58.1170213,87.0638298 C57.7978723,86.1702128 56.9042553,85.6276596 55.9787234,85.6276596 C54.6382979,85.5319149 53.2021277,85.5638298 51.7659574,85.5638298 L51.7659574,85.5638298 Z M59.8723404,85.5638298 C59.8723404,88.4361702 59.8723404,91.3085106 59.8723404,94.1808511 C61.9148936,94.1808511 63.9574468,94.1808511 66,94.1808511 C66,93.6702128 66,93.1276596 66,92.6170213 C64.5319149,92.6489362 63.0319149,92.6170213 61.5638298,92.6170213 C61.5638298,91.8829787 61.5638298,91.1489362 61.5638298,90.4148936 C62.8723404,90.4148936 64.1489362,90.4148936 65.4574468,90.4148936 C65.4574468,89.9042553 65.4574468,89.393617 65.4574468,88.8829787 C64.1489362,88.8829787 62.8723404,88.8829787 61.5638298,88.8829787 C61.5638298,88.2765957 61.5638298,87.7021277 61.5638298,87.0957447 C62.9680851,87.0957447 64.3723404,87.0957447 65.8085106,87.0957447 C65.8085106,86.5851064 65.8085106,86.0425532 65.8085106,85.5319149 C63.8297872,85.5638298 61.8510638,85.5638298 59.8723404,85.5638298 L59.8723404,85.5638298 Z M28.787234,99.3829787 C28.787234,101.297872 28.787234,103.180851 28.787234,105.095745 C49.5319149,105.095745 70.3085106,105.095745 91.0531915,105.095745 C91.0531915,103.180851 91.0531915,101.297872 91.0531915,99.3829787 C70.2765957,99.3829787 49.5319149,99.3829787 28.787234,99.3829787 Z" id="Shape" fill="#CE0A25"></path>
            <path d="M30.9893617,16.8191489 C50.2659574,16.8191489 69.5425532,16.8191489 88.787234,16.8191489 C88.787234,33.1914894 88.787234,49.5957447 88.787234,65.9680851 C69.5106383,65.9680851 50.2340426,65.9680851 30.9893617,65.9680851 C30.9893617,49.5638298 30.9893617,33.1914894 30.9893617,16.8191489 L30.9893617,16.8191489 Z M35.106383,27.893617 C35.106383,36.8297872 35.106383,45.7978723 35.106383,54.7340426 C38.3617021,54.7340426 41.5851064,54.7021277 44.8404255,54.7021277 C45.9255319,54.5744681 46.9468085,54.0957447 47.6808511,53.2978723 C48.4787234,52.4361702 48.893617,51.2553191 48.9255319,50.0744681 C48.9255319,48.3191489 48.9255319,46.5638298 48.9255319,44.8085106 C48.9255319,43.8829787 48.5744681,42.9255319 47.9042553,42.287234 C47.2659574,41.6808511 46.4042553,41.393617 45.5744681,41.2340426 C46.5319149,41.106383 47.5212766,40.7553191 48.2234043,40.0212766 C48.7978723,39.3829787 48.9893617,38.5212766 48.9893617,37.6914894 C48.9893617,36.0957447 48.9893617,34.5 48.9893617,32.9042553 C48.9893617,31.787234 48.7021277,30.6382979 48,29.7446809 C47.1382979,28.5957447 45.7021277,27.8617021 44.2340426,27.9255319 C41.1702128,27.893617 38.1382979,27.893617 35.106383,27.893617 L35.106383,27.893617 Z M52.3723404,27.893617 C52.3723404,36.8297872 52.3723404,45.7978723 52.3723404,54.7340426 C54.0319149,54.7340426 55.7234043,54.7340426 57.3829787,54.7340426 C57.3829787,51.4787234 57.3829787,48.1914894 57.3829787,44.9361702 C58.2765957,44.9361702 59.2021277,44.9361702 60.1276596,44.9361702 C60.5106383,44.9042553 60.893617,45.2234043 60.8617021,45.6382979 C60.8617021,48.6702128 60.8617021,51.7021277 60.8617021,54.7340426 C62.6489362,54.6702128 64.4361702,54.7021277 66.2234043,54.7021277 C66.2234043,51.6702128 66.2234043,48.6702128 66.2234043,45.6382979 C66.2553191,44.712766 66.1914894,43.7234043 65.6489362,42.9255319 C64.9787234,41.9361702 63.7978723,41.4255319 62.6489362,41.2659574 C63.6702128,41.0744681 64.7234043,40.7234043 65.4255319,39.9574468 C66,39.3510638 66.2234043,38.5212766 66.2234043,37.6914894 C66.2234043,36 66.2234043,34.3404255 66.2234043,32.6489362 C66.1914894,31.4361702 65.7765957,30.2234043 64.9148936,29.3617021 C64.0531915,28.4361702 62.7765957,27.8617021 61.5,27.9255319 C58.5,27.893617 55.4361702,27.893617 52.3723404,27.893617 L52.3723404,27.893617 Z M69.7021277,28.0851064 C69.7021277,30 69.7021277,31.9148936 69.7021277,33.8297872 C71.3617021,33.8297872 73.0212766,33.8297872 74.6808511,33.8297872 C74.6808511,40.8510638 74.6808511,47.9042553 74.6808511,54.9255319 C76.4042553,54.9255319 78.1276596,54.9255319 79.8510638,54.9255319 C79.8829787,47.8085106 79.8191489,40.7234043 79.8829787,33.606383 C81.5106383,33.6382979 83.106383,33.606383 84.7340426,33.606383 C84.7340426,31.7553191 84.7340426,29.9042553 84.7340426,28.0851064 C79.7234043,28.0851064 74.712766,28.0851064 69.7021277,28.0851064 Z" id="Shape" fill="#CE0A25"></path>
            <path d="M40.1170213,34.2446809 C40.9468085,34.2446809 41.7446809,34.2446809 42.5744681,34.2446809 C42.8617021,34.2446809 43.212766,34.2446809 43.4042553,34.4680851 C43.5957447,34.6595745 43.5638298,34.9468085 43.5638298,35.2021277 C43.5638298,36.1276596 43.5638298,37.0531915 43.5638298,38.0106383 C43.5638298,38.393617 43.1808511,38.6489362 42.7978723,38.6170213 C41.9042553,38.6170213 41.0106383,38.6170213 40.1170213,38.6170213 C40.1170213,37.1808511 40.1170213,35.712766 40.1170213,34.2446809 Z" id="Path" fill="#CE0A25"></path>
            <path d="M57.4148936,34.2446809 C58.2446809,34.2446809 59.0744681,34.2446809 59.9042553,34.2446809 C60.1914894,34.2446809 60.5425532,34.2446809 60.7340426,34.5 C60.9255319,34.6914894 60.893617,34.9787234 60.893617,35.2340426 C60.893617,36.1276596 60.893617,37.0212766 60.893617,37.9148936 C60.9255319,38.3297872 60.5425532,38.6808511 60.1595745,38.6489362 C59.2659574,38.6489362 58.3404255,38.6489362 57.4468085,38.6489362 C57.4148936,37.1808511 57.4148936,35.712766 57.4148936,34.2446809 Z" id="Path" fill="#CE0A25"></path>
            <path d="M40.1170213,44.9361702 C41.0106383,44.9361702 41.9361702,44.9361702 42.8297872,44.9361702 C43.212766,44.9042553 43.5957447,45.2234043 43.5638298,45.6382979 C43.5638298,46.5957447 43.5638298,47.5851064 43.5638298,48.5425532 C43.5319149,48.893617 43.3404255,49.4042553 42.9255319,49.4042553 C42,49.4042553 41.0425532,49.4042553 40.1170213,49.4042553 C40.1170213,47.9361702 40.1170213,46.4361702 40.1170213,44.9361702 Z" id="Path" fill="#CE0A25"></path>
            <path d="M41.4574468,74.712766 C42.2234043,74.5851064 43.0212766,74.8404255 43.5,75.4787234 C43.9787234,76.0851064 44.0744681,76.8510638 44.106383,77.5851064 C44.106383,78.3510638 43.9468085,79.212766 43.4042553,79.787234 C42.7021277,80.5531915 41.4255319,80.6489362 40.5957447,80.0425532 C40.0851064,79.6595745 39.7978723,79.0531915 39.7021277,78.4148936 C39.5744681,77.5851064 39.606383,76.7234043 39.9255319,75.9574468 C40.1808511,75.3191489 40.787234,74.8085106 41.4574468,74.712766 Z" id="Path" fill="#CE0A25"></path>
            <path d="M49.212766,74.8723404 C49.8829787,74.8723404 50.5531915,74.8723404 51.2234043,74.8723404 C51.5744681,74.8723404 51.9893617,74.9042553 52.2446809,75.1595745 C52.6276596,75.5106383 52.6595745,76.1170213 52.4361702,76.5638298 C52.2446809,76.9468085 51.7659574,77.0425532 51.3510638,77.0425532 C50.6489362,77.0425532 49.9148936,77.0425532 49.212766,77.0425532 C49.212766,76.3085106 49.212766,75.5744681 49.212766,74.8723404 Z" id="Path" fill="#CE0A25"></path>
            <path d="M57.8297872,74.8723404 C58.5638298,74.8723404 59.2978723,74.8723404 60,74.8723404 C60.4148936,74.8723404 60.893617,75.0319149 61.0851064,75.4468085 C61.2446809,75.7978723 61.212766,76.212766 61.0531915,76.5319149 C60.8617021,76.9148936 60.3829787,77.0425532 59.9680851,77.0425532 C59.2340426,77.0425532 58.5319149,77.0425532 57.7978723,77.0425532 C57.8297872,76.3085106 57.8297872,75.5744681 57.8297872,74.8723404 Z" id="Path" fill="#CE0A25"></path>
            <path d="M77.8085106,74.8723404 C78.4787234,74.8723404 79.1489362,74.8723404 79.787234,74.8723404 C80.1702128,74.8723404 80.6170213,74.9042553 80.8723404,75.2234043 C81.2234043,75.606383 81.2234043,76.2446809 80.9361702,76.6914894 C80.6808511,77.0106383 80.2659574,77.0744681 79.8829787,77.106383 C79.1808511,77.106383 78.4787234,77.106383 77.7765957,77.106383 C77.8085106,76.3085106 77.8085106,75.5744681 77.8085106,74.8723404 Z" id="Path" fill="#CE0A25"></path>
            <path d="M86.5212766,87.0319149 C87.287234,86.712766 88.212766,87 88.7234043,87.6382979 C89.2340426,88.3085106 89.3617021,89.1702128 89.3297872,90 C89.3297872,90.9255319 89.0744681,91.9787234 88.2765957,92.5212766 C87.4787234,93.0957447 86.2340426,92.9042553 85.6276596,92.106383 C84.9893617,91.2446809 84.9255319,90.0638298 85.0851064,89.0425532 C85.212766,88.1808511 85.6595745,87.3191489 86.5212766,87.0319149 Z" id="Path" fill="#CE0A25"></path>
            <path d="M45.9255319,87.0957447 C46.6595745,87.1276596 47.4255319,86.9680851 48.1276596,87.2234043 C48.7340426,87.4787234 48.7659574,88.2446809 48.606383,88.787234 C48.5106383,89.2021277 48.0957447,89.4893617 47.6808511,89.5212766 C47.0744681,89.5851064 46.5,89.5212766 45.893617,89.5531915 C45.9255319,88.7553191 45.9255319,87.9255319 45.9255319,87.0957447 Z" id="Path" fill="#CE0A25"></path>
            <path d="M53.4574468,87.0957447 C54.2553191,87.1276596 55.0851064,87.0638298 55.8829787,87.1276596 C56.6808511,87.287234 56.8723404,88.3723404 56.4574468,88.9787234 C56.2340426,89.2659574 55.8191489,89.3297872 55.4680851,89.3297872 C54.7978723,89.3297872 54.1276596,89.3297872 53.4574468,89.3297872 C53.4574468,88.5957447 53.4255319,87.8297872 53.4574468,87.0957447 Z" id="Path" fill="#CE0A25"></path>
            <path d="M28.863439,14.9361567 C49.5573165,14.9361567 70.2830308,14.9361567 90.9769084,14.9361567 C90.9769084,32.8009455 90.9769084,50.6657342 90.9769084,68.4986215 C70.2830308,68.4986215 49.5573165,68.4986215 28.863439,68.4986215 C28.863439,50.6657342 28.863439,32.8009455 28.863439,14.9361567 L28.863439,14.9361567 Z M31.0601737,17.1373539 C31.0601737,33.5027764 31.0601737,49.9001004 31.0601737,66.2655229 C50.2895614,66.2655229 69.5189492,66.2655229 88.7165002,66.2655229 C88.7165002,49.9001004 88.7165002,33.5027764 88.7165002,17.1373539 C69.5189492,17.1373539 50.2895614,17.1373539 31.0601737,17.1373539 Z" id="Shape" fill="#FFFFFF"></path>
            <path d="M35.1671125,28.2071426 C38.1916023,28.2071426 41.2479288,28.2071426 44.2724186,28.2071426 C45.7050716,28.1433398 47.1377247,28.8770722 48.0291533,30.0255229 C48.7295614,30.9187624 49.0160921,32.0672131 49.0160921,33.1837624 C49.0160921,34.7788328 49.0160921,36.3739032 49.0160921,37.9689736 C49.0160921,38.7984102 48.8250716,39.6916497 48.2520104,40.2977764 C47.583439,41.0315088 46.5965002,41.3824243 45.6095614,41.51003 C46.4691533,41.669537 47.3287451,41.9566497 47.9336431,42.5627764 C48.6022145,43.2008046 48.9524186,44.1578469 48.9524186,45.0829877 C48.9524186,46.8375652 48.9524186,48.5921426 48.9524186,50.3467201 C48.8887451,51.5270722 48.4748676,52.6755229 47.7107859,53.5687624 C46.978541,54.3662976 45.9279288,54.8448187 44.8773165,54.9724243 C41.6299696,55.0043257 38.4144594,55.0043257 35.1671125,55.0043257 C35.1352757,46.1038328 35.1671125,37.139537 35.1671125,28.2071426 L35.1671125,28.2071426 Z M40.1654798,34.5555229 C40.1654798,36.0229877 40.1654798,37.4904525 40.1654798,38.9260159 C41.0569084,38.9260159 41.948337,38.9260159 42.8397655,38.9260159 C43.1899696,38.9579173 43.5720104,38.6708046 43.6038472,38.3198891 C43.6356839,37.3947483 43.6038472,36.4696074 43.6038472,35.5125652 C43.6038472,35.2573539 43.6356839,34.9702412 43.4446635,34.7788328 C43.2536431,34.5236215 42.903439,34.5555229 42.6169084,34.5555229 C41.82099,34.5555229 40.9932349,34.5555229 40.1654798,34.5555229 L40.1654798,34.5555229 Z M40.1654798,45.2424948 C40.1654798,46.741861 40.1654798,48.2412272 40.1654798,49.7405933 C41.0887451,49.7405933 42.0438472,49.7405933 42.9671125,49.7405933 C43.38099,49.7086919 43.5720104,49.2301708 43.6038472,48.8792553 C43.6356839,47.9222131 43.6038472,46.9332694 43.6038472,45.9762272 C43.6356839,45.5615088 43.2536431,45.2424948 42.8716023,45.2743962 C41.9801737,45.2105933 41.0887451,45.2424948 40.1654798,45.2424948 Z" id="Shape" fill="#FFFFFF"></path>
            <path d="M52.3907859,28.2071426 C55.4471125,28.2071426 58.4716023,28.2071426 61.5279288,28.2071426 C62.8013982,28.1433398 64.0748676,28.7175652 64.9344594,29.642706 C65.7940512,30.5040441 66.2079288,31.748199 66.2397655,32.9285511 C66.2397655,34.6193257 66.2397655,36.278199 66.2397655,37.9689736 C66.2397655,38.7665088 65.9850716,39.6278469 65.4438472,40.2339736 C64.7116023,40.9996074 63.6928267,41.3824243 62.6740512,41.5419314 C63.8201737,41.7333398 64.9981329,42.211861 65.6667043,43.2008046 C66.2079288,43.9983398 66.2716023,44.9872835 66.2397655,45.9124243 C66.2397655,48.9430581 66.2397655,51.9417905 66.2397655,54.9724243 C64.4569084,54.9724243 62.6740512,54.9405229 60.8911941,55.0043257 C60.8911941,51.9736919 60.8911941,48.9430581 60.8911941,45.9124243 C60.8911941,45.497706 60.54099,45.1786919 60.1589492,45.2105933 C59.2675206,45.2105933 58.3442553,45.2105933 57.42099,45.2105933 C57.42099,48.464537 57.42099,51.7503821 57.42099,55.0043257 C55.7654798,55.0043257 54.0781329,55.0043257 52.4226227,55.0043257 C52.3907859,46.1038328 52.4226227,37.139537 52.3907859,28.2071426 L52.3907859,28.2071426 Z M57.42099,34.5555229 C57.42099,36.0229877 57.42099,37.4904525 57.42099,38.9260159 C58.3124186,38.9260159 59.2356839,38.9260159 60.1271125,38.9260159 C60.54099,38.9579173 60.8911941,38.6070018 60.8593574,38.1922835 C60.8911941,37.2990441 60.8593574,36.4058046 60.8593574,35.5125652 C60.8593574,35.2573539 60.8911941,35.0021426 60.7001737,34.7788328 C60.5091533,34.5236215 60.1589492,34.5555229 59.8724186,34.5236215 C59.0765002,34.5555229 58.2487451,34.5555229 57.42099,34.5555229 Z" id="Shape" fill="#FFFFFF"></path>
            <path d="M69.6781329,28.3985511 C74.6765002,28.3985511 79.6748676,28.3985511 84.6413982,28.3985511 C84.6413982,30.2488328 84.6413982,32.0991145 84.6413982,33.9174948 C83.0177247,33.9174948 81.425888,33.9174948 79.8022145,33.9174948 C79.7703778,41.0315088 79.8022145,48.1136215 79.7703778,55.2276356 C78.0511941,55.2276356 76.3320104,55.2276356 74.6128267,55.2276356 C74.6128267,48.2093257 74.6128267,41.1591145 74.6128267,34.1408046 C72.9573165,34.1408046 71.3018063,34.1408046 69.6462961,34.1408046 C69.6781329,32.1948187 69.6781329,30.3126356 69.6781329,28.3985511 Z" id="Path" fill="#FFFFFF"></path>
            <path d="M30.2642553,74.2727764 C31.3148676,73.4114384 32.7793574,73.2838328 34.0528267,73.6666497 C35.2626227,74.0175652 36.185888,75.1660159 36.2813982,76.4420722 C35.6765002,76.4420722 35.103439,76.4420722 34.498541,76.4420722 C34.3711941,76.0273539 34.1801737,75.5807342 33.7981329,75.3255229 C33.0340512,74.8151004 31.8879288,74.9108046 31.2830308,75.644537 C30.7736431,76.2506638 30.6462961,77.0801004 30.6144594,77.8776356 C30.6144594,78.6432694 30.7736431,79.4408046 31.2511941,80.0469314 C31.8879288,80.876368 33.2569084,80.9401708 33.9891533,80.2064384 C34.2756839,79.9193257 34.4348676,79.5684102 34.498541,79.1855933 C35.103439,79.1536919 35.6765002,79.1855933 36.2813982,79.1855933 C36.1222145,80.1426356 35.6446635,81.0996779 34.8169084,81.6420018 C33.8936431,82.28003 32.7156839,82.3757342 31.6650716,82.1524243 C30.7099696,81.9610159 29.8503778,81.3229877 29.4046635,80.4616497 C28.8316023,79.4408046 28.7679288,78.1966497 28.863439,77.048199 C28.9907859,75.9954525 29.4365002,74.942706 30.2642553,74.2727764 Z" id="Path" fill="#FFFFFF"></path>
            <path d="M40.8022145,73.6028469 C42.1075206,73.2838328 43.6038472,73.5390441 44.6544594,74.4322835 C45.418541,75.1022131 45.8005818,76.1230581 45.8960921,77.1439032 C45.9597655,78.1647483 45.9279288,79.2493962 45.4503778,80.2064384 C45.068337,80.9720722 44.4316023,81.578199 43.6356839,81.8972131 C42.3622145,82.4076356 40.8022145,82.3438328 39.6242553,81.6101004 C38.7328267,81.0677764 38.1597655,80.0788328 38.0005818,79.0579877 C37.8095614,77.8776356 37.8413982,76.6015793 38.3826227,75.48503 C38.828337,74.5279877 39.783439,73.8261567 40.8022145,73.6028469 L40.8022145,73.6028469 Z M41.5026227,75.0065088 C40.8022145,75.1022131 40.1973165,75.6126356 39.9426227,76.2506638 C39.6242553,77.0162976 39.5605818,77.8776356 39.7197655,78.7070722 C39.8471125,79.313199 40.1018063,79.9512272 40.6111941,80.3340441 C41.4389492,80.9401708 42.7124186,80.8444666 43.4128267,80.0788328 C43.9540512,79.472706 44.1132349,78.6432694 44.1132349,77.8776356 C44.1132349,77.1439032 43.985888,76.3782694 43.508337,75.7721426 C43.0944594,75.1341145 42.2667043,74.8789032 41.5026227,75.0065088 Z" id="Shape" fill="#FFFFFF"></path>
            <path d="M47.4879288,73.6985511 C48.9524186,73.6985511 50.3850716,73.6985511 51.8495614,73.6985511 C52.74099,73.6985511 53.6960921,74.081368 54.0781329,74.9108046 C54.6511941,75.9635511 54.3328267,77.5905229 53.1230308,78.0371426 C53.4413982,78.1966497 53.7597655,78.3880581 53.9189492,78.7070722 C54.30099,79.6003117 53.9826227,80.5573539 54.2054798,81.4824948 C54.2373165,81.6420018 54.3965002,81.7058046 54.4920104,81.8015088 C54.4920104,81.8653117 54.4920104,81.9929173 54.4920104,82.0567201 C53.8552757,82.0567201 53.1867043,82.0886215 52.5499696,82.0567201 C52.2316023,81.2272835 52.4544594,80.3021426 52.2952757,79.4408046 C52.2316023,79.0260863 51.7540512,78.8346779 51.3720104,78.8346779 C50.6716023,78.8027764 49.9393574,78.8346779 49.2389492,78.8346779 C49.2389492,79.9193257 49.2707859,81.0039736 49.2389492,82.0886215 C48.665888,82.0567201 48.06099,82.0886215 47.4879288,82.0886215 C47.4879288,79.2493962 47.4879288,76.4739736 47.4879288,73.6985511 L47.4879288,73.6985511 Z M49.2389492,75.1660159 C49.2389492,75.8997483 49.2389492,76.6334807 49.2389492,77.3672131 C49.9393574,77.3672131 50.6716023,77.3672131 51.3720104,77.3672131 C51.7540512,77.3672131 52.2316023,77.2715088 52.4544594,76.8886919 C52.6773165,76.4420722 52.6454798,75.8359455 52.263439,75.48503 C52.0087451,75.2298187 51.5948676,75.1979173 51.2446635,75.1979173 C50.6079288,75.1341145 49.9393574,75.1660159 49.2389492,75.1660159 Z" id="Shape" fill="#FFFFFF"></path>
            <path d="M56.1156839,73.6666497 C57.548337,73.6985511 58.9491533,73.6666497 60.3818063,73.6666497 C61.018541,73.6666497 61.6871125,73.8261567 62.1965002,74.240875 C63.0242553,74.942706 63.2152757,76.2825652 62.6740512,77.207706 C62.4511941,77.5586215 62.1328267,77.8138328 61.7826227,78.0052412 C62.1328267,78.1647483 62.4830308,78.3880581 62.6103778,78.770875 C62.8969084,79.6003117 62.6740512,80.4935511 62.8332349,81.3548891 C62.8650716,81.5462976 63.0242553,81.6420018 63.1516023,81.737706 C63.1516023,81.8015088 63.1516023,81.8972131 63.1516023,81.9610159 C62.4830308,81.9610159 61.8462961,81.9610159 61.1777247,81.9610159 C60.9230308,81.1315793 61.0503778,80.2702412 60.9548676,79.4408046 C60.9230308,78.9941849 60.4773165,78.7389736 60.063439,78.7389736 C59.3311941,78.7070722 58.5989492,78.7389736 57.8667043,78.7389736 C57.8667043,79.8236215 57.8667043,80.9082694 57.8667043,81.9929173 C57.2936431,81.9929173 56.7205818,81.9929173 56.1475206,81.9929173 C56.1156839,79.2493962 56.0838472,76.4739736 56.1156839,73.6666497 L56.1156839,73.6666497 Z M57.8348676,75.1660159 C57.8348676,75.8997483 57.8348676,76.6334807 57.8348676,77.3672131 C58.5671125,77.3672131 59.2675206,77.3672131 59.9997655,77.3672131 C60.4136431,77.3672131 60.8911941,77.2396074 61.0822145,76.8567905 C61.2413982,76.505875 61.2413982,76.0911567 61.1140512,75.7721426 C60.9230308,75.3574243 60.4454798,75.1979173 60.0316023,75.1979173 C59.2993574,75.1341145 58.5671125,75.1660159 57.8348676,75.1660159 Z" id="Shape" fill="#FFFFFF"></path>
            <path d="M64.7116023,73.6985511 C65.2846635,73.6985511 65.8895614,73.6985511 66.4626227,73.6985511 C66.4626227,76.4739736 66.4626227,79.2493962 66.4626227,82.0248187 C65.8895614,82.0248187 65.2846635,82.0248187 64.7116023,82.0248187 C64.7116023,79.2493962 64.7116023,76.4739736 64.7116023,73.6985511 Z" id="Path" fill="#FFFFFF"></path>
            <path d="M68.0862961,73.6666497 C70.1238472,73.6666497 72.1932349,73.6666497 74.2307859,73.6666497 C74.2307859,74.1770722 74.2307859,74.6874948 74.2307859,75.1979173 C72.7662961,75.1979173 71.3018063,75.1979173 69.8373165,75.1979173 C69.8373165,75.7721426 69.8373165,76.3144666 69.8373165,76.8886919 C71.1744594,76.8886919 72.5116023,76.8886919 73.8805818,76.8886919 C73.8805818,77.3991145 73.8805818,77.8776356 73.8805818,78.3880581 C72.543439,78.3880581 71.2062961,78.3880581 69.8373165,78.3880581 C69.8373165,79.0898891 69.8373165,79.7917201 69.8373165,80.5254525 C71.3654798,80.5254525 72.9254798,80.5254525 74.4536431,80.5254525 C74.4536431,81.035875 74.4536431,81.5143962 74.4536431,82.0248187 C72.3205818,82.0248187 70.2193574,82.0248187 68.0862961,82.0248187 C68.0862961,79.2493962 68.0862961,76.4739736 68.0862961,73.6666497 Z" id="Path" fill="#FFFFFF"></path>
            <path d="M76.0454798,73.6985511 C77.3826227,73.6985511 78.7516023,73.6985511 80.0887451,73.6985511 C80.82099,73.6985511 81.5850716,73.8261567 82.1262961,74.3365793 C83.2405818,75.2936215 83.1132349,77.4629173 81.6487451,78.0371426 C81.9671125,78.2285511 82.3173165,78.4199595 82.4446635,78.770875 C82.7630308,79.6322131 82.508337,80.5892553 82.6993574,81.4505933 C82.7311941,81.6101004 82.858541,81.6739032 82.985888,81.7696074 C82.985888,81.8334102 82.985888,81.9610159 82.985888,82.0248187 C82.3491533,82.0248187 81.6805818,82.0248187 81.0438472,82.0248187 C80.8846635,81.4505933 80.8528267,80.8125652 80.8528267,80.2064384 C80.8528267,79.8555229 80.8528267,79.472706 80.6618063,79.1536919 C80.4707859,78.8346779 80.0569084,78.8027764 79.7067043,78.770875 C79.0381329,78.770875 78.3695614,78.770875 77.7328267,78.770875 C77.7328267,79.8555229 77.7328267,80.9401708 77.7328267,82.0248187 C77.1597655,82.0248187 76.5867043,82.0248187 76.0136431,82.0248187 C76.0454798,79.2493962 76.0454798,76.4739736 76.0454798,73.6985511 L76.0454798,73.6985511 Z M77.7646635,75.1660159 C77.7646635,75.8997483 77.7646635,76.6334807 77.7646635,77.3672131 C78.4650716,77.3672131 79.1654798,77.3672131 79.865888,77.3672131 C80.2479288,77.3672131 80.6936431,77.3034102 80.9165002,76.9524948 C81.2030308,76.5377764 81.2030308,75.8997483 80.8528267,75.48503 C80.5662961,75.1979173 80.1524186,75.1660159 79.7703778,75.1341145 C79.1018063,75.1341145 78.4332349,75.1660159 77.7646635,75.1660159 Z" id="Shape" fill="#FFFFFF"></path>
            <path d="M84.6095614,73.6985511 C86.6471125,73.6985511 88.7165002,73.6985511 90.7540512,73.6985511 C90.7540512,74.2089736 90.7540512,74.7193962 90.7540512,75.2298187 C89.2895614,75.2298187 87.7932349,75.2298187 86.3287451,75.2298187 C86.3287451,75.8040441 86.3287451,76.346368 86.3287451,76.9205933 C87.665888,76.9205933 89.0348676,76.9205933 90.3720104,76.9205933 C90.3720104,77.4310159 90.3720104,77.909537 90.3720104,78.4199595 C89.0348676,78.4199595 87.665888,78.4199595 86.3287451,78.4199595 C86.3287451,79.1217905 86.3287451,79.8236215 86.3287451,80.5573539 C87.8569084,80.5573539 89.4169084,80.5573539 90.9450716,80.5573539 C90.9450716,81.0677764 90.9450716,81.5462976 90.9450716,82.0567201 C88.8438472,82.0567201 86.7107859,82.0567201 84.6095614,82.0567201 C84.6095614,79.2493962 84.6095614,76.4739736 84.6095614,73.6985511 Z" id="Path" fill="#FFFFFF"></path>
            <path d="M37.3320104,86.267706 C38.0642553,85.6934807 39.0511941,85.5977764 39.9426227,85.6615793 C40.738541,85.7253821 41.5344594,86.0443962 42.0438472,86.6824243 C42.4577247,87.1609455 42.6487451,87.7989736 42.6805818,88.4370018 C42.1393574,88.4370018 41.5981329,88.4370018 41.0569084,88.4370018 C40.9932349,88.0222835 40.8340512,87.5756638 40.4201737,87.3842553 C39.8152757,87.0652412 39.0193574,87.0652412 38.4462961,87.4480581 C37.9369084,87.7670722 37.9369084,88.7241145 38.5418063,88.9474243 C39.4969084,89.2664384 40.5156839,89.4259455 41.4707859,89.776861 C42.1075206,90.0001708 42.6805818,90.5105933 42.8397655,91.1805229 C43.0307859,92.041861 42.9352757,93.0308046 42.3303778,93.7007342 C41.7254798,94.4025652 40.7703778,94.6896779 39.8789492,94.7215793 C38.9238472,94.7215793 37.8732349,94.5620722 37.14099,93.8921426 C36.5997655,93.3817201 36.3769084,92.5841849 36.3450716,91.8504525 C36.8862961,91.8504525 37.4275206,91.8504525 37.9687451,91.8504525 C38.0005818,92.3289736 38.223439,92.8393962 38.70099,93.0308046 C39.3695614,93.3179173 40.1654798,93.2860159 40.8022145,92.9989032 C41.4071125,92.7117905 41.5026227,91.7547483 40.865888,91.4357342 C39.783439,90.9253117 38.5418063,90.9253117 37.4911941,90.3510863 C36.9181329,90.0639736 36.5360921,89.4578469 36.5042553,88.8198187 C36.3132349,87.8627764 36.5679288,86.8419314 37.3320104,86.267706 Z" id="Path" fill="#FFFFFF"></path>
            <path d="M68.0226227,86.5867201 C68.6275206,85.8529877 69.6144594,85.6296779 70.505888,85.6296779 C71.3973165,85.5977764 72.3205818,85.8529877 72.9254798,86.5229173 C73.4030308,87.0333398 73.625888,87.7351708 73.6577247,88.4051004 C73.1165002,88.4051004 72.5752757,88.4051004 72.0340512,88.4051004 C71.9703778,87.9903821 71.8111941,87.5437624 71.3973165,87.3523539 C70.7924186,87.0333398 69.9965002,87.0333398 69.3916023,87.4161567 C68.8822145,87.7351708 68.8822145,88.6922131 69.5189492,88.9155229 C70.4740512,89.234537 71.4928267,89.3940441 72.4479288,89.7449595 C73.0528267,89.9682694 73.625888,90.4148891 73.8169084,91.0529173 C74.0397655,91.9142553 73.9442553,92.903199 73.3711941,93.60503 C72.7344594,94.3706638 71.7156839,94.6577764 70.7287451,94.6577764 C69.7736431,94.6577764 68.7230308,94.466368 68.0544594,93.764537 C67.5450716,93.2541145 67.3540512,92.4884807 67.3222145,91.7866497 C67.863439,91.7866497 68.4046635,91.7866497 68.945888,91.7866497 C68.9777247,92.2651708 69.2005818,92.7755933 69.6781329,92.9670018 C70.3467043,93.2541145 71.1107859,93.2222131 71.7793574,92.9351004 C72.3842553,92.6479877 72.4797655,91.6909455 71.8748676,91.3719314 C70.8242553,90.8934102 69.6144594,90.8615088 68.5956839,90.3510863 C68.0862961,90.095875 67.7042553,89.6492553 67.5769084,89.07503 C67.385888,88.2455933 67.4813982,87.2885511 68.0226227,86.5867201 Z" id="Path" fill="#FFFFFF"></path>
            <path d="M76.268337,86.2996074 C76.9050716,85.7572835 77.7646635,85.5977764 78.5924186,85.6296779 C79.4201737,85.6296779 80.343439,85.8848891 80.9165002,86.5229173 C81.425888,87.0333398 81.6169084,87.7351708 81.6805818,88.4370018 C81.1393574,88.4370018 80.5981329,88.4370018 80.0250716,88.4370018 C79.9613982,88.0541849 79.8340512,87.6394666 79.4520104,87.4161567 C78.8471125,87.0652412 78.0511941,87.0652412 77.4462961,87.3842553 C76.8732349,87.671368 76.8732349,88.6603117 77.4781329,88.8836215 C78.4650716,89.234537 79.4838472,89.3940441 80.4707859,89.7449595 C81.1075206,89.9682694 81.7124186,90.5105933 81.8397655,91.1805229 C81.9989492,92.041861 81.903439,92.9989032 81.298541,93.6688328 C80.6936431,94.3706638 79.7067043,94.625875 78.8152757,94.6577764 C77.8920104,94.6577764 76.8732349,94.4982694 76.1728267,93.8602412 C75.5997655,93.3498187 75.3450716,92.5522835 75.3132349,91.7866497 C75.8544594,91.7866497 76.3956839,91.7866497 76.9369084,91.7866497 C77.0005818,92.2651708 77.1916023,92.7755933 77.6691533,92.9670018 C78.305888,93.2541145 79.1018063,93.2222131 79.7703778,92.9670018 C80.343439,92.7117905 80.5344594,91.7547483 79.9295614,91.4357342 C78.783439,90.8615088 77.4144594,90.8934102 76.3320104,90.2234807 C75.7589492,89.8725652 75.5042553,89.2026356 75.4724186,88.532706 C75.3769084,87.7032694 75.6316023,86.8419314 76.268337,86.2996074 Z" id="Path" fill="#FFFFFF"></path>
            <path d="M86.105888,85.7572835 C87.188337,85.4701708 88.3981329,85.6296779 89.3213982,86.267706 C90.0218063,86.7462272 90.5311941,87.511861 90.7540512,88.3412976 C91.0087451,89.2026356 90.9769084,90.095875 90.9450716,90.9572131 C90.8495614,91.9461567 90.4993574,92.9670018 89.7352757,93.6688328 C88.143439,95.1362976 85.2462961,94.9129877 84.068337,93.0946074 C83.3997655,92.1056638 83.2724186,90.8296074 83.3360921,89.6492553 C83.3997655,88.6284102 83.6862961,87.5437624 84.3867043,86.7781286 C84.8005818,86.267706 85.4373165,85.9167905 86.105888,85.7572835 L86.105888,85.7572835 Z M86.4560921,87.3204525 C85.5965002,87.6075652 85.1507859,88.5008046 85.0552757,89.3302412 C84.8960921,90.3510863 84.9597655,91.5314384 85.5965002,92.3927764 C86.2013982,93.1903117 87.4111941,93.3817201 88.2389492,92.8074948 C89.0348676,92.2651708 89.2895614,91.2124243 89.2895614,90.2872835 C89.3213982,89.4578469 89.1940512,88.5965088 88.6846635,87.9265793 C88.143439,87.2566497 87.2201737,87.0014384 86.4560921,87.3204525 Z" id="Shape" fill="#FFFFFF"></path>
            <path d="M28.863439,85.8529877 C30.8054798,85.8529877 32.7793574,85.8529877 34.7213982,85.8529877 C34.7213982,86.3634102 34.7213982,86.8738328 34.7213982,87.4161567 C33.3205818,87.4161567 31.9197655,87.4161567 30.4871125,87.4161567 C30.4552757,88.0222835 30.4871125,88.5965088 30.4871125,89.2026356 C31.7924186,89.2026356 33.065888,89.2026356 34.3711941,89.2026356 C34.3711941,89.7130581 34.3711941,90.2234807 34.3711941,90.7339032 C33.065888,90.7339032 31.7924186,90.7339032 30.4871125,90.7339032 C30.4871125,91.4676356 30.4871125,92.201368 30.4871125,92.9351004 C31.9516023,92.9351004 33.4479288,92.9351004 34.9124186,92.9351004 C34.9442553,93.4455229 34.9124186,93.9878469 34.9124186,94.4982694 C32.8748676,94.4982694 30.8691533,94.4982694 28.863439,94.4982694 C28.863439,91.5952412 28.8316023,88.7241145 28.863439,85.8529877 Z" id="Path" fill="#FFFFFF"></path>
            <path d="M44.2724186,85.8529877 C45.5140512,85.8529877 46.7556839,85.8529877 48.0291533,85.8529877 C48.8887451,85.8529877 49.748337,86.2996074 50.1303778,87.0971426 C50.6079288,88.1179877 50.5442553,89.3621426 49.9393574,90.3191849 C49.5254798,90.9891145 48.7613982,91.34003 47.9973165,91.34003 C47.3287451,91.34003 46.628337,91.34003 45.9597655,91.34003 C45.9597655,92.360875 45.9597655,93.4136215 45.9597655,94.4344666 C45.3867043,94.4344666 44.8454798,94.4344666 44.2724186,94.4344666 C44.2724186,91.5952412 44.2724186,88.7241145 44.2724186,85.8529877 L44.2724186,85.8529877 Z M45.9597655,87.3842553 C45.9597655,88.2136919 45.9597655,89.0431286 45.9597655,89.8725652 C46.5646635,89.8725652 47.1377247,89.9044666 47.7426227,89.8406638 C48.1565002,89.8087624 48.5703778,89.5216497 48.665888,89.1069314 C48.8250716,88.5646074 48.7613982,87.7989736 48.188337,87.5437624 C47.4560921,87.2566497 46.6920104,87.4161567 45.9597655,87.3842553 Z" id="Shape" fill="#FFFFFF"></path>
            <path d="M51.785888,85.8529877 C53.218541,85.8529877 54.6511941,85.8210863 56.0520104,85.8529877 C56.9752757,85.8529877 57.8667043,86.4272131 58.1850716,87.2885511 C58.5989492,88.3412976 58.3442553,89.8406638 57.1981329,90.3191849 C57.4846635,90.5105933 57.8348676,90.7020018 57.9622145,91.0529173 C58.2805818,91.9142553 58.0895614,92.8712976 58.2169084,93.764537 C58.2169084,94.0516497 58.5989492,94.1473539 58.5352757,94.4344666 C57.898541,94.4344666 57.2936431,94.4344666 56.6887451,94.4344666 C56.338541,93.5731286 56.6250716,92.5522835 56.4022145,91.6590441 C56.3067043,91.3719314 56.0520104,91.1486215 55.7336431,91.1167201 C55.0013982,91.0210159 54.2373165,91.0848187 53.5050716,91.0529173 C53.5050716,92.1694666 53.5050716,93.2860159 53.5050716,94.4025652 C52.9638472,94.4025652 52.3907859,94.4025652 51.8495614,94.4025652 C51.785888,91.5952412 51.785888,88.7241145 51.785888,85.8529877 L51.785888,85.8529877 Z M53.4732349,87.3842553 C53.4413982,88.1498891 53.4732349,88.8836215 53.4732349,89.6492553 C54.1418063,89.6492553 54.8103778,89.6492553 55.4789492,89.6492553 C55.8291533,89.6492553 56.2430308,89.5854525 56.465888,89.2983398 C56.9116023,88.6922131 56.7205818,87.6075652 55.8928267,87.4480581 C55.0969084,87.3204525 54.2691533,87.4161567 53.4732349,87.3842553 Z" id="Shape" fill="#FFFFFF"></path>
            <path d="M59.8724186,85.8529877 C61.8462961,85.8529877 63.8201737,85.8529877 65.7622145,85.8529877 C65.7622145,86.3634102 65.7622145,86.9057342 65.7622145,87.4161567 C64.3613982,87.4161567 62.9605818,87.4161567 61.5279288,87.4161567 C61.4960921,88.0222835 61.5279288,88.5965088 61.5279288,89.2026356 C62.8332349,89.2026356 64.1067043,89.2026356 65.4120104,89.2026356 C65.4120104,89.7130581 65.4120104,90.2234807 65.4120104,90.7339032 C64.1067043,90.7339032 62.8332349,90.7339032 61.5279288,90.7339032 C61.5279288,91.4676356 61.5279288,92.201368 61.5279288,92.9351004 C62.9924186,92.9351004 64.4887451,92.9351004 65.9532349,92.9351004 C65.9850716,93.4455229 65.9532349,93.9878469 65.9532349,94.4982694 C63.9156839,94.4982694 61.8781329,94.4982694 59.8405818,94.4982694 C59.8724186,91.5952412 59.8724186,88.7241145 59.8724186,85.8529877 Z" id="Path" fill="#FFFFFF"></path>
            <path d="M28.863439,99.6662976 C49.5573165,99.6662976 70.2511941,99.6662976 90.9769084,99.6662976 C90.9769084,101.580382 90.9769084,103.462565 90.9769084,105.37665 C70.2830308,105.37665 49.5573165,105.37665 28.863439,105.37665 C28.863439,103.462565 28.863439,101.548481 28.863439,99.6662976 Z" id="Path" fill="#FFFFFF"></path>
        </g>
    </g>
</svg>